<?xml version="1.0" encoding="UTF-8" standalone="no"?>
<svg
   viewBox="0 0 300.00001 35.507695"
   version="1.1"
   id="svg26"
   sodipodi:docname="NBCUniversal.svg"
   width="300"
   height="35.507694"
   inkscape:version="1.1 (c68e22c387, 2021-05-23)"
   xmlns:inkscape="http://www.inkscape.org/namespaces/inkscape"
   xmlns:sodipodi="http://sodipodi.sourceforge.net/DTD/sodipodi-0.dtd"
   xmlns="http://www.w3.org/2000/svg"
   xmlns:svg="http://www.w3.org/2000/svg"
   xmlns:rdf="http://www.w3.org/1999/02/22-rdf-syntax-ns#"
   xmlns:cc="http://creativecommons.org/ns#"
   xmlns:dc="http://purl.org/dc/elements/1.1/">
  <sodipodi:namedview
     id="namedview28"
     pagecolor="#ffffff"
     bordercolor="#666666"
     borderopacity="1.0"
     inkscape:pageshadow="2"
     inkscape:pageopacity="0.0"
     inkscape:pagecheckerboard="0"
     showgrid="false"
     fit-margin-top="0"
     fit-margin-left="0"
     fit-margin-right="0"
     fit-margin-bottom="0"
     inkscape:zoom="2.2399075"
     inkscape:cx="36.608654"
     inkscape:cy="-48.4395"
     inkscape:window-width="1600"
     inkscape:window-height="837"
     inkscape:window-x="-8"
     inkscape:window-y="-8"
     inkscape:window-maximized="1"
     inkscape:current-layer="svg26" />
  <defs
     id="defs4">
    <style
       id="style2">.cls-1{fill:#400093;}</style>
  </defs>
  <title
     id="title6">NBCU_Careers_Logo_Purple</title>
  <path
     class="cls-1"
     d="m 22.343595,2.5881331 h 11.56281 V 3.035005 l -1.861966,1.8619662 a 1.9736842,1.9736842 0 0 0 -0.670308,1.545432 V 35.507696 H 30.927259 L 9.0677756,15.4357 v 15.007448 a 1.8619662,1.8619662 0 0 0 0.6516882,1.526812 l 1.8619662,1.861967 v 0.446871 H 0 V 33.831927 L 1.8619662,31.96996 A 1.8619662,1.8619662 0 0 0 2.5322741,30.443148 V 1.1357994 H 2.9419067 L 24.82001,21.151936 V 6.4424032 A 1.8619662,1.8619662 0 0 0 24.205561,4.8969712 L 22.343595,3.035005 Z M 66.15566,25.285501 c 0,6.163109 -4.338381,8.993297 -11.432472,8.993297 H 36.475919 v -0.446871 l 1.861966,-1.861967 a 1.8619662,1.8619662 0 0 0 0.670308,-1.545432 V 6.4424032 A 1.8619662,1.8619662 0 0 0 38.337885,4.8969712 L 36.475919,3.035005 V 2.5881331 h 18.414846 c 6.665839,0 9.980139,3.1653426 9.980139,8.5650449 a 6.8334161,6.8334161 0 0 1 -5.585899,6.479642 v 0 c 4.263903,0.726167 6.945134,3.258441 6.945134,7.578203 M 46.120904,15.137786 h 7.876117 c 2.420556,0 3.723932,-1.15442 3.723932,-3.370159 0,-2.2157402 -1.09856,-3.3887789 -3.723932,-3.3887789 h -7.876117 z m 12.810327,9.309831 c 0,-2.79295 -1.694389,-3.89151 -5.064548,-3.89151 h -7.745779 v 7.74578 h 7.745779 c 2.867428,0 5.064548,-0.986842 5.064548,-3.85427 m 26.719216,4.450099 c -5.381083,0 -9.049156,-4.133565 -9.049156,-10.315293 0,-6.554121 4.059086,-10.4642502 9.309831,-10.4642502 a 6.5168818,6.5168818 0 0 1 6.777557,4.2639022 L 93.17279,12.512413 95.835402,1.6943893 95.38853,1.5081927 a 4.5618173,4.5618173 0 0 1 -3.109483,1.1357994 c -1.545432,0 -3.947369,-0.5958292 -6.833416,-0.5958292 -9.309832,0 -16.5715,6.2562065 -16.5715,16.4970211 0,10.240814 7.14995,16.385303 16.422542,16.385303 a 15.882572,15.882572 0 0 0 11.935204,-4.766634 l -4.133565,-5.027309 a 8.9746773,8.9746773 0 0 1 -7.447865,3.723933 m 33.105763,-25.8068524 1.86196,1.8619663 a 2.0109235,2.0109235 0 0 1 0.68893,1.5454319 V 22.04568 c 0,4.543198 -2.29022,6.777557 -6.31207,6.777557 -4.02184,0 -6.38654,-2.122641 -6.38654,-6.777557 V 6.4424032 a 1.8619662,1.8619662 0 0 1 0.68893,-1.545432 L 111.15938,3.035005 V 2.6067527 H 99.037984 v 0.4468719 l 1.861966,1.8619663 a 1.8619662,1.8619662 0 0 1 0.67031,1.5454319 V 21.859484 c 0,8.769861 5.5859,13.033763 13.42477,13.033763 7.83888,0 13.4434,-4.319761 13.4434,-13.033763 V 6.4424032 a 1.8619662,1.8619662 0 0 1 0.67031,-1.545432 L 130.97071,3.035005 V 2.6067527 h -12.2145 z m 37.64895,26.8309334 v -9.142254 c 0,-5.436942 -2.69985,-8.602284 -7.33614,-8.602284 a 7.8388779,7.8388779 0 0 0 -7.18719,4.301142 v -3.89151 h -9.03054 v 0.484112 l 1.86197,1.861966 c 0.57721,0.577209 0.67031,0.949603 0.67031,2.085402 v 13.033764 c 0,1.135799 0,1.508192 -0.67031,2.085402 l -1.86197,1.861966 v 0.446872 h 11.69315 v -0.446872 l -1.86197,-1.861966 c -0.57721,-0.57721 -0.67031,-0.949603 -0.67031,-2.085402 V 22.58565 c 0,-2.569513 1.26614,-4.599056 4.11495,-4.599056 2.40194,0 3.51912,1.750248 3.51912,4.263903 v 12.028301 h 9.19811 v -0.446871 l -1.86197,-1.861967 c -0.57721,-0.577209 -0.65168,-0.949603 -0.65168,-2.085402 m 14.18818,0 V 12.549652 h -9.12364 v 0.484112 l 1.86197,1.861966 c 0.57721,0.577209 0.67031,0.949603 0.67031,2.085402 v 13.033764 c 0,1.135799 0,1.508192 -0.67031,2.085402 l -1.86197,1.861966 v 0.446872 h 11.76763 v -0.446872 l -1.86197,-1.861966 c -0.57721,-0.57721 -0.68892,-0.949603 -0.68892,-2.085402 m -3.4074,-20.7050648 a 3.8542701,3.8542701 0 0 0 3.91013,-3.9473684 3.8356504,3.8356504 0 0 0 -3.91013,-3.9101291 3.9473684,3.9473684 0 1 0 0,7.8574975 m 30.90864,3.2212018 h -8.34161 l -3.85427,10.501489 h -0.11172 l -4.41286,-10.48287 h -8.22989 v 0.484112 a 11.171797,11.171797 0 0 1 3.38878,4.338381 l 8.86296,17.874876 h 0.48411 l 8.8071,-17.874876 a 10.371152,10.371152 0 0 1 3.4074,-4.338381 z m 21.37537,10.873883 c 0,0.763406 0,1.470953 0,1.861966 h -15.02607 a 5.0086892,5.0086892 0 0 0 5.45556,4.077706 6.0327706,6.0327706 0 0 0 4.59906,-1.861966 l 3.72393,4.431479 a 13.406157,13.406157 0 0 1 -8.9002,2.848809 c -7.16857,0 -11.73038,-4.357001 -11.73038,-11.171798 a 10.911122,10.911122 0 0 1 11.58143,-11.618669 c 7.20581,0 10.37115,4.748014 10.37115,11.264896 m -6.79618,-2.010924 a 3.9101291,3.9101291 0 0 0 -3.98461,-4.189424 4.3197617,4.3197617 0 0 0 -4.39424,4.189424 z m 18.32175,-4.468719 v -4.208044 h -9.03054 v 0.484112 l 1.86197,1.861966 c 0.57721,0.577209 0.67031,0.949603 0.67031,2.085402 v 13.033764 c 0,1.135799 0,1.508192 -0.67031,2.085402 l -1.86197,1.861966 v 0.446872 h 11.71177 v -0.446872 l -1.86197,-1.861966 c -0.55859,-0.57721 -0.65168,-0.949603 -0.65168,-2.085402 v -6.703079 c 0,-3.258441 1.60129,-5.008689 4.1708,-5.008689 a 4.6735353,4.6735353 0 0 1 3.2212,1.266137 l 1.75025,-6.796177 a 6.2003476,6.2003476 0 0 0 -2.81157,-0.633068 7.000993,7.000993 0 0 0 -6.51688,4.803873 m 23.27458,4.021847 c -2.97915,-0.484111 -5.21351,-0.484111 -5.21351,-2.252979 0,-1.005462 0.83789,-1.67577 2.79295,-1.67577 2.64399,0 5.10179,0.875124 6.01415,2.886048 l 0.46549,0.130337 2.10403,-8.285749 -0.44688,-0.167577 a 4.468719,4.468719 0 0 1 -2.9419,1.135799 c -1.47096,0 -2.83019,-0.577209 -5.5859,-0.577209 -4.76663,0 -9.30983,1.713008 -9.30983,7.094091 0,4.208044 3.35154,5.827954 6.55412,6.367924 3.20258,0.539971 5.41832,0.614449 5.41832,2.420557 0,1.042701 -0.91236,1.861966 -2.84881,1.861966 a 11.357994,11.357994 0 0 1 -7.20581,-2.495035 l -3.10948,4.636296 a 15.99429,15.99429 0 0 0 9.8498,2.923287 c 6.25621,0 10.1291,-2.75571 10.1291,-7.596822 0,-4.170805 -3.53774,-5.790715 -6.79618,-6.349305 m 30.40591,11.00422 1.86197,1.861967 v 0.446871 h -9.04916 v -2.997765 a 7.2616683,7.2616683 0 0 1 -6.74032,3.574975 6.3865442,6.3865442 0 0 1 -6.88927,-6.330685 c 0,-4.822493 3.3143,-7.056852 10.55734,-7.20581 2.32746,0 2.94191,-0.558589 2.94191,-1.861966 0,-1.303376 -1.06132,-2.21574 -3.87289,-2.21574 a 7.2430487,7.2430487 0 0 0 -5.3066,2.364697 l -3.53774,-4.170804 a 13.164101,13.164101 0 0 1 9.58913,-3.351539 c 6.87065,0 9.8498,2.848808 9.8498,8.416087 v 9.309831 c 0,1.1358 0.0931,1.508193 0.67031,2.085403 m -7.31753,-7.447865 a 12.475174,12.475174 0 0 1 -2.79295,0.353773 c -2.99776,0.186197 -4.04047,1.284757 -4.04047,2.77433 a 2.3274578,2.3274578 0 0 0 2.47642,2.439176 4.0032274,4.0032274 0 0 0 4.41286,-4.003228 z m 20.79816,7.447865 c -0.59583,-0.57721 -0.68892,-0.949603 -0.68892,-2.085403 V 0 h -9.16088 v 0.4468719 l 1.86197,1.8619662 c 0.57721,0.5772096 0.67031,0.9496028 0.67031,2.0667826 V 29.884558 c 0,1.135799 -0.0931,1.508193 -0.67031,2.085402 l -1.86197,1.861967 v 0.446871 H 300 v -0.446871 z"
     id="path8"
     style="stroke-width:1.86197" />
  <metadata
     id="metadata1079">
    <rdf:RDF>
      <cc:Work
         rdf:about="">
        <dc:title>NBCU_Careers_Logo_Purple</dc:title>
      </cc:Work>
    </rdf:RDF>
  </metadata>
</svg>
