<?xml version="1.0" encoding="UTF-8"?><svg id="Layer_1" xmlns="http://www.w3.org/2000/svg" viewBox="0 0 46.23 16.33"><g><path d="M4.6,3.16c0-.27-.08-.46-.24-.56s-.39-.16-.69-.16-.51,.05-.68,.16c-.17,.11-.25,.29-.25,.56V13.17c0,.27,.08,.46,.25,.56,.16,.11,.39,.16,.68,.16s.53-.05,.69-.16c.16-.1,.24-.29,.24-.56v-3.41h2.77v3.9c0,.42-.05,.8-.16,1.13-.11,.33-.29,.61-.56,.84s-.65,.4-1.13,.52c-.48,.12-1.1,.18-1.85,.18s-1.37-.06-1.84-.18c-.47-.12-.85-.29-1.12-.52-.27-.23-.46-.5-.56-.84-.11-.33-.16-.71-.16-1.13V2.66c0-.42,.05-.8,.16-1.13,.11-.33,.29-.61,.56-.83,.27-.23,.64-.4,1.12-.52,.47-.12,1.09-.18,1.84-.18s1.37,.06,1.85,.18c.48,.12,.86,.29,1.13,.52s.46,.5,.56,.83c.11,.33,.16,.71,.16,1.13v3.74h-2.77V3.16Z" fill="#4967aa"/><path d="M8.68,.27h4.65c.41,0,.78,.04,1.12,.12,.34,.08,.62,.22,.86,.41s.42,.44,.55,.77c.14,.32,.2,.73,.2,1.23v3.47c0,.44-.11,.76-.34,.98-.23,.22-.44,.37-.63,.46v.16c.21,.08,.44,.21,.68,.42,.24,.2,.36,.51,.36,.91v4.31c0,.48-.07,.89-.2,1.22-.13,.33-.32,.59-.56,.79-.24,.2-.53,.33-.88,.42-.35,.08-.73,.12-1.15,.12h-4.65V.27Zm4.13,6.38c.12,0,.23-.05,.33-.14,.1-.09,.15-.24,.15-.45V3.27c0-.21-.06-.36-.19-.44-.13-.08-.26-.12-.39-.12h-1.24v3.95h1.35Zm-.09,6.97c.16,0,.31-.04,.44-.12,.13-.08,.19-.23,.19-.44v-3.52c0-.16-.06-.28-.18-.35-.12-.07-.24-.1-.36-.1h-1.35v4.53h1.26Z" fill="#4967aa"/><path d="M22.02,2.98c0-.36-.31-.54-.92-.54-.65,0-.97,.18-.97,.54v1.56c0,.26,.03,.45,.08,.59,.05,.14,.12,.25,.21,.34l3.43,3.14c.3,.26,.54,.55,.72,.88,.18,.33,.27,.8,.27,1.4v2.68c0,.99-.3,1.7-.89,2.13-.59,.43-1.54,.64-2.85,.64-.68,0-1.26-.04-1.75-.14-.49-.09-.88-.24-1.18-.46-.3-.22-.52-.5-.66-.86-.14-.35-.21-.79-.21-1.32v-3.63h2.75v3.32c0,.24,.09,.41,.28,.51,.19,.1,.45,.15,.78,.15,.29,0,.52-.05,.7-.15,.18-.1,.27-.27,.27-.51v-2.1c0-.21-.02-.38-.07-.51-.04-.13-.13-.25-.25-.35l-3.2-2.78c-.38-.33-.67-.69-.88-1.08-.21-.39-.32-.94-.32-1.65V2.77c0-1.01,.29-1.72,.88-2.14,.59-.42,1.54-.63,2.87-.63s2.35,.21,2.89,.64c.54,.43,.81,1.11,.81,2.04v3.02h-2.78V2.98Z" fill="#4967aa"/></g><g><path d="M32.32,3.25c.69,.47,1.39,.92,2.12,1.35v-.09s-1.16-2.69-1.16-2.69c-.22-.5-.43-1.02-.65-1.55h-2.2V2.31c.1-.08,.23-.13,.36-.15,.8-.08,.9,.84,1.53,1.09" fill="#4967aa"/><path d="M37.23,12.16l-.88-2.51-1.12-2.86-.24-.59-.57-.36-2.57-1.48c-.38-.29-.94-.36-1.23-.73-.05-.09-.11-.18-.17-.27v12.72h8.06l-.03-.11-1.23-3.8" fill="#4967aa"/><path d="M35.33,4.94c.13,.55,.71,.68,1.08,1,1.47,1.02,2.98,2.1,4.42,3.19,0,0,.03,.02,.08,.05v-.03s0-1.26,.04-2.1c-.06-1.65-.19-3.9-.48-5.32-.17-.4-.36-.79-.3-1.19,0-.09,0-.18-.03-.27h-6.37c.07,.21,.14,.41,.21,.62,.45,1.34,.87,2.71,1.35,4.04" fill="#4967aa"/><path d="M41.6,.84c.2,.49,.05,.98,.09,1.48,.06,1.41,.12,2.83-.1,4.24-.08,.95-.16,1.9-.17,2.85,0,0,0,.06,0,.16,.06,.05,.11,.09,.12,.12l.04-.03,.73-2.24,.91-3.03c.27-1.14,.71-2.29,.75-3.44-.1-.2-.2-.44-.2-.67h-2.17c.01,.19,.01,.38-.02,.57" fill="#4967aa"/><path d="M40.99,11.33v-1.29c-.07-.04-.13-.09-.17-.14-1.32-.98-2.76-1.85-4.15-2.72-.1,.02-.08,.15-.1,.22,.41,2.6,1.38,5.19,2.17,7.79,.1,.29,.17,.59,.26,.88h.44c.45-1.34,.88-2.65,1.32-4.01,.08-.24,.15-.48,.22-.73" fill="#4967aa"/><path d="M45.42,.27s-.01,.05-.02,.08c-.28,1.07-.59,2.13-1.07,3.19-.32,.72-.56,1.5-.79,2.25-.42,.63-.67,1.37-.95,2.08l-.75,2.03c.17,.17,.4,.29,.56,.48,1.24,.96,2.47,1.95,3.62,3.01,.07,.09,.14,.18,.22,.26V.27h-.81" fill="#4967aa"/><path d="M41,12.64l-.34,.87c-.29,.86-.56,1.71-.82,2.56h1.04l.12-3.39v-.04" fill="#4967aa"/><path d="M42.52,11.1q-.37-.26-.45-.32s0,0-.02-.02c-.03-.02-.07-.04-.1-.06,0,0-.02,0-.02,0-.03-.02-.07-.05-.11-.08-.02,.02-.02,.11-.04,.14-.05,.14-.14,.25-.14,.25-.05,.15-.1,.25-.14,.35,0,.15,0,.31,0,.46,0,.96-.12,2.61-.09,2.73,0,0-.03,.94-.06,1.5h4.87v-2.38h-.13c-1.2-.86-2.37-1.73-3.58-2.58" fill="#4967aa"/></g></svg>