<svg version="1.1" id="Layer_1" xmlns="http://www.w3.org/2000/svg" xmlns:xlink="http://www.w3.org/1999/xlink" x="0px" y="0px"
	 width="100%" viewBox="0 0 1280 315" enable-background="new 0 0 1280 315" xml:space="preserve">
<path fill="#FEFEFE" opacity="1.000000" stroke="none" 
	d="
M1018.000000,316.000000 
	C679.000000,316.000000 340.000000,316.000000 1.000000,316.000000 
	C1.000000,311.602692 1.000000,307.271179 1.455034,302.348999 
	C18.521906,301.758301 35.133743,301.758301 51.977921,301.758301 
	C51.977921,211.685608 51.977921,122.033989 51.977921,32.000000 
	C34.894936,32.000000 17.947468,32.000000 1.000000,32.000000 
	C1.000000,21.669111 1.000000,11.338223 1.000000,1.005502 
	C427.563263,1.003668 854.126526,1.003668 1280.844971,1.003668 
	C1280.844971,105.999847 1280.844971,210.999893 1280.844971,316.000000 
	C1214.567261,316.000000 1148.249634,316.000000 1081.634766,315.701294 
	C1083.239502,312.793427 1085.847534,310.443787 1086.918945,307.529175 
	C1091.090820,296.180725 1094.809937,284.664581 1098.627197,273.187439 
	C1100.638428,267.140381 1102.504272,261.044922 1104.575317,254.532394 
	C1100.028687,254.532394 1096.193970,254.280716 1092.426880,254.674957 
	C1091.183350,254.805084 1089.431396,256.415009 1089.086548,257.670807 
	C1087.770996,262.462189 1086.966675,267.392059 1085.910767,272.257080 
	C1084.691284,277.876404 1083.407593,283.481781 1082.151855,289.093231 
	C1081.909058,289.016541 1081.666260,288.939819 1081.423584,288.863098 
	C1079.003784,277.533478 1076.583984,266.203857 1074.140503,254.763626 
	C1069.257568,254.763626 1064.701172,254.763626 1059.586914,254.763626 
	C1064.005249,268.662781 1068.343994,282.163086 1072.583130,295.694580 
	C1075.838989,306.087677 1075.782837,306.101929 1064.687500,306.737122 
	C1064.390137,306.754150 1064.107422,307.027222 1063.667358,307.260773 
	C1063.449463,310.114746 1063.224731,313.057373 1063.000000,316.000000 
	C1056.977295,316.000000 1050.954468,316.000000 1044.544434,315.654785 
	C1050.452393,313.088593 1053.173828,308.448975 1053.173950,301.973663 
	C1053.174194,287.646118 1053.178955,273.318604 1053.157104,258.991089 
	C1053.155029,257.580048 1052.982056,256.169250 1052.833008,253.923050 
	C1048.192993,256.070374 1042.880981,251.777054 1039.415649,257.342804 
	C1033.522827,253.171204 1027.258545,252.178909 1020.558655,254.830551 
	C1011.479126,258.424042 1009.164185,266.305267 1008.426514,274.835724 
	C1007.250793,288.430176 1014.232178,298.245850 1025.822510,298.732178 
	C1030.495972,298.928253 1035.253296,297.130859 1039.991821,296.237030 
	C1039.508789,300.303833 1041.555054,306.017853 1035.067139,307.909485 
	C1028.764160,309.747253 1025.571411,307.812012 1022.533203,301.231384 
	C1018.019043,301.231384 1013.556885,301.231384 1009.121033,301.231384 
	C1008.337769,308.576904 1012.788513,312.521088 1018.000000,316.000000 
M329.712921,301.222229 
	C329.787170,300.737366 329.926453,300.252472 329.926483,299.767609 
	C329.931549,242.329010 329.928619,184.890411 329.904114,127.451828 
	C329.903656,126.360870 329.641693,125.270035 329.525238,124.362549 
	C310.439423,124.362549 291.716827,124.362549 272.852356,124.362549 
	C272.852356,126.718300 272.852295,128.712067 272.852325,130.705841 
	C272.853577,185.314270 272.852844,239.922699 272.864838,294.531128 
	C272.865234,296.356232 272.994812,298.181335 273.043976,300.845306 
	C273.407654,301.113586 273.771790,301.617157 274.134949,301.616455 
	C292.403717,301.579987 310.672394,301.500397 329.712921,301.222229 
M645.017029,51.839016 
	C648.778931,66.226807 652.540894,80.614601 656.270142,94.877167 
	C661.238708,94.877167 665.835327,94.877167 670.463928,94.877167 
	C674.404297,79.466904 678.273560,64.334656 682.142883,49.202412 
	C682.451904,49.249790 682.760925,49.297165 683.069946,49.344543 
	C683.069946,64.536705 683.069946,79.728859 683.069946,94.966370 
	C688.198730,94.966370 692.942505,94.966370 697.699951,94.966370 
	C697.699951,73.882271 697.699951,53.016636 697.699951,32.296997 
	C689.933716,32.296997 682.516479,32.296997 675.034363,32.296997 
	C671.242981,47.648991 667.512085,62.756241 663.430054,79.285126 
	C659.448669,62.682076 655.795471,47.447468 652.171570,32.335182 
	C644.274902,32.335182 636.703613,32.335182 629.222534,32.335182 
	C629.222534,53.419880 629.222534,74.180611 629.222534,94.859039 
	C634.039001,94.859039 638.600830,94.859039 643.164917,94.859039 
	C643.164917,80.045441 643.164917,65.560684 643.730896,51.002628 
	C644.109497,51.023376 644.488159,51.044128 645.017029,51.839016 
M237.214218,67.500099 
	C237.214218,55.752670 237.214218,44.005238 237.214218,32.315731 
	C217.935623,32.315731 199.215240,32.315731 180.472809,32.315731 
	C180.472809,122.187767 180.472809,211.738220 180.472809,301.525635 
	C199.414749,301.525635 218.141785,301.525635 237.214218,301.525635 
	C237.214218,223.688217 237.214218,146.094162 237.214218,67.500099 
M144.865799,142.500046 
	C144.865799,105.752052 144.865799,69.004066 144.865799,32.288364 
	C125.595955,32.288364 106.859589,32.288364 88.178497,32.288364 
	C88.178497,93.821716 88.178497,155.065323 88.178497,216.198059 
	C107.152687,216.198059 125.883209,216.198059 144.865799,216.198059 
	C144.865799,191.762833 144.865799,167.631454 144.865799,142.500046 
M422.207550,218.500107 
	C422.207550,187.091614 422.207550,155.683121 422.207550,124.445877 
	C402.874115,124.445877 384.163666,124.445877 365.615356,124.445877 
	C365.615356,183.731979 365.615356,242.629150 365.615356,301.563202 
	C384.557373,301.563202 403.161102,301.563202 422.207550,301.563202 
	C422.207550,274.068085 422.207550,246.784103 422.207550,218.500107 
M507.802826,73.495300 
	C507.802826,59.741856 507.802826,45.988415 507.802826,32.257874 
	C460.031464,32.257874 412.826477,32.257874 365.600189,32.257874 
	C365.600189,51.237427 365.600189,69.955368 365.600189,88.661324 
	C413.091248,88.661324 460.286774,88.661324 507.802826,88.661324 
	C507.802826,83.755104 507.802826,79.124016 507.802826,73.495300 
M272.932129,81.442825 
	C272.932129,83.872208 272.932129,86.301590 272.932129,88.639816 
	C292.211639,88.639816 310.923340,88.639816 329.599915,88.639816 
	C329.599915,69.624680 329.599915,50.915199 329.599915,32.290249 
	C310.570099,32.290249 291.845673,32.290249 272.932892,32.290249 
	C272.932892,48.540646 272.932892,64.499619 272.932129,81.442825 
M806.029968,301.774475 
	C805.952026,288.724854 806.310242,275.650360 805.568237,262.638611 
	C805.294922,257.845184 801.098816,254.896454 795.954834,253.852585 
	C789.552856,252.553436 784.063293,254.485336 778.446228,258.524445 
	C778.446228,251.470825 778.446228,245.231918 778.446228,239.050323 
	C773.739563,239.050323 769.367676,239.050323 765.005859,239.050323 
	C765.005859,260.133606 765.005859,280.857941 765.005859,301.597839 
	C769.642090,301.597839 774.005554,301.597839 778.624573,301.597839 
	C778.624573,299.110840 778.604004,296.968597 778.628296,294.826843 
	C778.715088,287.176086 778.659180,279.518921 778.977844,271.877533 
	C779.145569,267.853790 781.098694,264.923584 785.677185,264.765015 
	C790.156189,264.609924 791.721008,267.651215 792.487854,271.265564 
	C792.895935,273.189056 792.831299,275.229797 792.839722,277.218201 
	C792.873962,285.325317 792.853943,293.432709 792.853943,301.961823 
	C797.210266,301.961823 801.161804,301.961823 806.029968,301.774475 
M977.878174,77.511818 
	C978.143860,72.716484 978.155579,67.888786 978.761108,63.136757 
	C979.193115,59.746048 981.984070,57.477985 985.095764,58.273346 
	C987.499573,58.887764 989.993958,61.269211 991.270264,63.529980 
	C992.372681,65.482765 991.948242,68.371292 991.968079,70.847992 
	C992.033020,78.934868 991.992371,87.022591 991.992371,95.044128 
	C996.922363,95.044128 1001.216187,95.044128 1005.742737,95.044128 
	C1005.742737,83.131256 1006.190186,71.338379 1005.593079,59.598637 
	C1005.159973,51.084614 999.364319,46.392593 990.730469,47.106186 
	C986.381531,47.465633 982.174377,49.541733 977.775635,50.880379 
	C977.775635,45.216496 977.775635,38.817348 977.775635,32.253452 
	C973.043091,32.253452 968.648621,32.253452 964.271118,32.253452 
	C964.271118,53.365814 964.271118,74.235962 964.271118,94.818802 
	C968.994812,94.818802 973.392822,94.818802 977.878174,94.818802 
	C977.878174,89.131927 977.878174,83.819283 977.878174,77.511818 
M699.390991,167.822052 
	C699.301514,165.660095 699.259094,163.494965 699.113159,161.336823 
	C698.778320,156.386688 696.380249,152.685120 691.670288,151.151077 
	C685.009216,148.981552 678.590576,149.648880 672.885742,154.158417 
	C672.542847,154.429474 672.059082,154.522339 671.531006,154.744293 
	C671.317200,153.510498 671.133850,152.452759 670.956604,151.430084 
	C666.479492,151.430084 662.214478,151.430084 657.759338,151.430084 
	C657.759338,167.081573 657.759338,182.496140 657.759338,198.155594 
	C662.317322,198.155594 666.707581,198.155594 671.357239,198.155594 
	C671.357239,188.425385 671.289001,178.959579 671.383301,169.495407 
	C671.438477,163.962570 674.327087,160.971725 679.068542,161.171646 
	C683.421936,161.355225 685.289795,163.820221 685.305237,169.549133 
	C685.330750,179.007294 685.312134,188.465576 685.312134,198.053436 
	C690.170471,198.053436 694.721252,198.053436 699.389893,198.053436 
	C699.389893,188.061691 699.389893,178.410934 699.390991,167.822052 
M901.721252,87.326859 
	C901.725891,78.994484 901.827637,70.660728 901.709290,62.330101 
	C901.577942,53.075729 898.568542,49.113140 889.525024,47.627110 
	C884.501892,46.801701 879.173401,46.713982 874.129456,47.390182 
	C865.844666,48.500870 861.722351,53.450275 861.326111,61.470921 
	C862.111511,61.540455 862.904358,61.664200 863.698303,61.671303 
	C866.531067,61.696644 869.380859,61.856861 872.188171,61.588825 
	C873.176086,61.494499 874.398682,60.511417 874.932556,59.595200 
	C877.095886,55.882851 880.875122,54.415680 884.923645,55.986858 
	C889.214844,57.652260 888.188049,61.018490 887.845398,64.456161 
	C886.124573,64.657394 884.600891,64.631821 883.200439,65.034714 
	C877.207092,66.758995 870.920349,67.926773 865.372131,70.605499 
	C859.786072,73.302452 857.796082,80.152641 859.359924,86.180206 
	C860.807678,91.760422 865.375000,95.454086 871.621399,96.194305 
	C878.043274,96.955338 883.777954,95.455444 888.833252,90.896927 
	C889.356689,92.430504 889.806152,93.747253 890.204773,94.915070 
	C894.593201,94.915070 898.697327,94.915070 902.540283,94.915070 
	C902.250366,92.531876 901.991577,90.404510 901.721252,87.326859 
M1024.645142,151.917694 
	C1012.907715,157.283737 1007.764343,168.300186 1010.810242,181.550262 
	C1013.476990,193.150803 1023.204895,200.464767 1035.800293,199.836685 
	C1045.868286,199.334625 1054.618042,195.759384 1058.273071,185.541779 
	C1061.862671,175.507034 1061.690552,165.310196 1053.649414,157.222412 
	C1045.718994,149.246002 1035.775391,148.678436 1024.645142,151.917694 
M969.682800,196.335815 
	C972.787598,193.351349 975.892334,190.366867 979.387207,187.007431 
	C976.550720,185.547989 974.951538,184.690613 973.321716,183.896042 
	C971.597534,183.055511 969.844116,182.274734 968.224915,181.524124 
	C962.331665,189.218842 958.729370,190.915070 953.135559,188.926498 
	C948.657166,187.334442 946.692322,183.856888 947.028076,177.680496 
	C957.573364,177.680496 968.145935,177.680496 978.681335,177.680496 
	C979.326599,166.639145 974.799622,156.850143 967.455872,152.958267 
	C958.124329,148.012985 945.197876,149.696976 938.918579,156.675980 
	C931.656860,164.746826 930.422791,181.466171 936.443604,190.207108 
	C943.114990,199.892502 956.113708,202.508743 969.682800,196.335815 
M920.002869,282.102997 
	C922.051270,261.997070 908.822876,251.403351 890.255432,253.853012 
	C880.528687,255.136292 873.642517,261.037811 870.969482,270.676758 
	C868.136353,280.893280 871.326416,292.257660 878.641174,297.876038 
	C890.865967,307.265930 916.889771,304.736603 920.002869,282.102997 
M1138.328735,96.097023 
	C1150.785522,97.448158 1159.175293,93.453896 1164.790405,83.338150 
	C1161.437866,81.661613 1158.094849,79.989861 1154.821045,78.352684 
	C1147.157349,86.238808 1143.332886,87.889427 1138.346802,85.236488 
	C1134.133545,82.994728 1132.246338,79.511940 1133.290649,74.362671 
	C1143.967651,74.362671 1154.393433,74.362671 1164.790771,74.362671 
	C1165.469482,62.451797 1160.677612,52.489132 1152.320679,49.015717 
	C1143.453369,45.330196 1134.520264,45.577023 1127.031372,51.891960 
	C1118.510498,59.077095 1117.643555,69.107971 1119.567505,79.315460 
	C1121.401855,89.047768 1127.935303,94.334976 1138.328735,96.097023 
M1002.341736,281.865845 
	C1004.409241,266.131256 994.764771,254.049973 979.753540,253.578934 
	C969.883850,253.269241 961.080688,255.329803 955.965210,264.614044 
	C950.688354,274.190979 950.670959,284.136230 956.912842,293.276489 
	C963.063782,302.283630 972.497437,304.196716 982.570618,302.590881 
	C993.742859,300.809814 1000.586975,294.149078 1002.341736,281.865845 
M712.140747,71.614105 
	C707.102234,75.968590 705.444153,82.086868 708.305603,87.381889 
	C715.804626,101.258659 726.609497,97.263329 737.552612,91.310020 
	C737.825195,92.469536 738.135559,93.789803 738.375305,94.809616 
	C742.870789,94.809616 746.897278,94.809616 750.636963,94.809616 
	C750.403992,91.476349 750.047607,88.511261 750.017517,85.542862 
	C749.933105,77.218742 750.075256,68.891884 749.951050,60.568745 
	C749.853882,54.054939 746.741699,49.353073 740.543396,48.264111 
	C734.574036,47.215370 728.258057,46.762310 722.274658,47.503429 
	C713.884949,48.542599 709.638000,54.086483 710.024048,61.547913 
	C714.129883,61.547913 718.245605,61.547913 722.306396,61.547913 
	C724.863770,56.037144 728.713928,53.810276 733.096313,56.164898 
	C734.907959,57.138268 735.777771,60.153744 736.561890,62.418430 
	C736.671326,62.734623 733.922668,64.356071 732.334534,64.889114 
	C725.824341,67.074150 719.251221,69.071739 712.140747,71.614105 
M878.160645,173.458282 
	C878.128296,176.285965 878.241150,179.124542 878.029785,181.938782 
	C877.708130,186.223160 874.600281,188.915192 870.420105,188.663712 
	C866.004639,188.398026 863.898132,186.011932 863.999573,181.558670 
	C864.086670,177.732559 864.021240,173.902985 864.021729,170.074936 
	C864.022461,163.831238 864.021912,157.587540 864.021912,151.443756 
	C859.024963,151.443756 854.761475,151.443756 850.311829,151.443756 
	C850.311829,163.967499 850.020447,176.244141 850.432800,188.497086 
	C850.644165,194.777054 853.735229,197.474548 859.782959,199.145432 
	C866.402039,200.974182 872.192139,199.214188 877.581543,195.377197 
	C878.746948,198.742371 884.314209,199.602982 891.782043,197.675064 
	C891.782043,182.252975 891.782043,166.863861 891.782043,151.607361 
	C887.068420,151.607361 882.681091,151.607361 878.160645,151.607361 
	C878.160645,158.836227 878.160645,165.653534 878.160645,173.458282 
M860.969238,292.457916 
	C860.967529,283.959625 861.102173,275.458527 860.926147,266.963867 
	C860.747742,258.357086 857.270752,254.145432 848.681885,253.821381 
	C843.526978,253.626907 838.294250,255.494324 832.986755,256.454926 
	C832.320068,253.843781 831.334778,253.642990 819.264160,254.933289 
	C819.264160,270.466125 819.264160,286.019440 819.264160,301.646362 
	C823.931458,301.646362 828.323669,301.646362 832.979553,301.646362 
	C832.979553,291.710510 832.914490,282.069092 833.005066,272.429138 
	C833.055664,267.041595 835.194946,264.829712 839.997375,264.751556 
	C844.963562,264.670746 846.920898,266.572083 846.992798,272.186066 
	C847.117981,281.963074 847.027588,291.742859 847.027588,301.648132 
	C851.916870,301.648132 856.307922,301.648132 860.969238,301.648132 
	C860.969238,298.721710 860.969238,296.082886 860.969238,292.457916 
M680.590576,281.009064 
	C688.875488,281.009064 697.160461,281.009064 705.466492,281.009064 
	C704.355652,262.614929 697.965942,254.567856 683.908020,253.365402 
	C671.994324,252.346359 662.510376,259.458466 660.057678,271.251038 
	C656.963196,286.129333 662.171875,297.794128 673.802856,301.686737 
	C684.630493,305.310516 699.745850,301.875916 704.848694,289.813416 
	C701.567017,288.086060 698.264221,286.347626 694.875427,284.563904 
	C691.068848,289.658112 687.544250,294.631836 680.444214,292.430725 
	C675.055847,290.760254 673.144470,286.651703 673.050659,281.010040 
	C675.327087,281.010040 677.473572,281.010040 680.590576,281.009064 
M1032.102783,78.983170 
	C1032.102783,68.727684 1032.102783,58.472206 1032.102783,48.358589 
	C1027.162231,48.358589 1022.776428,48.358589 1018.224731,48.358589 
	C1018.224731,60.371971 1018.021240,72.023415 1018.295227,83.663612 
	C1018.482727,91.632195 1022.291199,95.863548 1030.243286,96.065880 
	C1035.418701,96.197571 1040.641602,94.466866 1046.102295,93.525879 
	C1046.815674,95.489128 1052.096924,96.336327 1059.871582,94.536240 
	C1059.871582,79.085815 1059.871582,63.671173 1059.871582,48.318459 
	C1055.215698,48.318459 1050.822388,48.318459 1046.133545,48.318459 
	C1046.133545,58.615738 1046.220337,68.589478 1046.089355,78.560364 
	C1046.039307,82.361794 1044.052734,84.739395 1039.994385,85.096573 
	C1035.921631,85.455032 1032.572876,84.892349 1032.102783,78.983170 
M629.196594,292.447174 
	C629.196594,295.537689 629.196594,298.628204 629.196594,301.612366 
	C634.910828,301.612366 639.975220,301.612366 645.373413,301.612366 
	C645.373413,284.570953 645.373413,267.853699 645.373413,250.810104 
	C650.982788,250.810104 656.245117,250.810104 661.498291,250.810104 
	C661.498291,246.609955 661.498291,242.755798 661.498291,238.895020 
	C645.223511,238.895020 629.307068,238.895020 613.174622,238.895020 
	C613.174622,242.952927 613.174622,246.828217 613.174622,251.137604 
	C618.659363,251.137604 623.899902,251.137604 629.196594,251.137604 
	C629.196594,264.869690 629.196594,278.166321 629.196594,292.447174 
M851.018677,74.878738 
	C848.943665,70.140762 844.765320,68.241570 840.174622,67.066010 
	C836.178406,66.042694 832.007629,65.597054 828.128296,64.269821 
	C826.478699,63.705437 825.375549,61.543983 824.024109,60.108311 
	C825.725098,59.079453 827.586426,56.989204 829.097595,57.217426 
	C833.955811,57.951180 838.684814,59.540886 843.738770,60.872974 
	C845.791626,58.953171 848.540710,56.382320 851.659668,53.465565 
	C848.525085,51.946125 845.945374,50.445061 843.191101,49.407440 
	C834.833618,46.258881 826.395569,45.331749 818.232422,49.928696 
	C812.440857,53.190140 810.234314,58.365952 810.852051,64.961586 
	C811.417419,70.997604 815.753479,73.323097 820.569031,74.901695 
	C824.641174,76.236572 829.030151,76.615601 833.084106,77.991570 
	C835.115112,78.680916 836.711670,80.650230 838.504761,82.040627 
	C836.323547,83.408958 834.280579,85.589958 831.934509,85.989044 
	C825.602295,87.066269 820.520508,83.703087 815.898621,79.777542 
	C812.997192,82.377335 810.344360,84.754341 807.671265,87.149574 
	C816.935242,96.111679 829.871948,98.924812 841.207947,94.735237 
	C849.465454,91.683411 853.363220,84.198105 851.018677,74.878738 
M717.794067,153.062378 
	C711.998108,156.691849 709.195312,161.989243 710.354553,168.682281 
	C711.568726,175.692017 717.404602,177.656967 723.408264,179.019821 
	C726.958801,179.825806 730.619324,180.292511 734.037476,181.471359 
	C735.608398,182.013168 736.715576,183.899490 738.033081,185.176132 
	C736.575928,186.497772 735.312500,188.579437 733.627930,189.008759 
	C726.534119,190.816681 720.808777,187.658218 715.602356,183.023239 
	C712.757019,185.492538 709.937439,187.939453 707.084717,190.415131 
	C707.926880,191.194016 708.508789,191.794449 709.152771,192.318573 
	C719.693970,200.897781 735.043701,202.389206 744.773315,195.841431 
	C750.221436,192.175003 751.802612,186.885071 751.142883,180.720276 
	C750.543091,175.115082 746.655518,172.409470 741.732605,171.037704 
	C737.278198,169.796509 732.616943,169.234573 728.252197,167.763931 
	C726.382507,167.134003 725.032898,164.960709 723.446960,163.488693 
	C725.339355,162.364563 727.384521,160.105103 729.094788,160.335175 
	C733.706360,160.955521 738.175232,162.636826 743.576843,164.141037 
	C745.230103,162.319412 747.819458,159.466415 750.489380,156.524658 
	C740.370483,150.669464 729.953430,147.444382 717.794067,153.062378 
M1238.636597,91.986359 
	C1246.083496,96.749191 1254.313232,97.267258 1262.640747,95.773163 
	C1271.523682,94.179420 1276.835938,88.164474 1277.065918,80.422226 
	C1277.289307,72.903946 1273.879028,69.416885 1263.597900,66.748077 
	C1260.082642,65.835587 1256.439331,65.303726 1253.052734,64.058876 
	C1251.505127,63.489998 1250.437866,61.614872 1249.152832,60.332150 
	C1250.816406,59.225639 1252.639038,57.005707 1254.114258,57.216599 
	C1258.990479,57.913696 1263.741211,59.488464 1268.880371,60.814178 
	C1270.824463,59.022976 1273.589600,56.475285 1276.996094,53.336624 
	C1272.473511,51.396431 1268.700562,49.291355 1264.655762,48.148544 
	C1257.269165,46.061584 1249.821533,46.037949 1242.969238,50.181023 
	C1237.425415,53.532986 1235.308105,58.689739 1235.984863,65.028168 
	C1236.612061,70.903145 1240.868530,73.400406 1245.802856,74.903526 
	C1249.899170,76.151337 1254.264893,76.579239 1258.270386,78.033623 
	C1260.349365,78.788483 1261.906616,80.980354 1263.699463,82.523064 
	C1261.542969,83.732117 1259.493164,85.678650 1257.209595,86.008995 
	C1250.901367,86.921547 1245.754028,83.773605 1241.122437,79.720764 
	C1238.156494,82.384422 1235.479736,84.788353 1232.627319,87.350021 
	C1234.638062,88.927284 1236.328491,90.253410 1238.636597,91.986359 
M1073.663696,82.143692 
	C1071.797241,83.760223 1069.930786,85.376747 1068.053711,87.002464 
	C1076.976685,96.280830 1091.817749,99.219223 1103.000854,94.121353 
	C1109.221313,91.285751 1112.614258,85.453346 1112.087769,78.501404 
	C1111.650269,72.723770 1107.784912,68.733337 1100.774048,67.073395 
	C1096.921875,66.161301 1092.898804,65.830429 1089.173584,64.579865 
	C1087.273438,63.941990 1085.860596,61.852901 1084.227417,60.419746 
	C1086.192871,59.283421 1088.307251,57.002110 1090.094482,57.234749 
	C1094.664307,57.829578 1099.088257,59.544033 1104.185303,60.984398 
	C1105.957275,59.205853 1108.609985,56.543415 1111.265991,53.877728 
	C1102.234497,46.258850 1086.969849,44.561825 1077.874146,50.292828 
	C1072.604614,53.613029 1070.476318,58.666702 1071.048218,64.764313 
	C1071.590088,70.541801 1075.734741,73.298523 1080.656372,74.829269 
	C1085.051514,76.196182 1089.724365,76.683746 1094.093018,78.114151 
	C1095.949829,78.722046 1097.343384,80.744720 1098.947388,82.124420 
	C1097.093018,83.450684 1095.382446,85.587715 1093.356567,85.946930 
	C1087.891968,86.915871 1082.831299,85.176201 1078.603638,81.579056 
	C1076.892944,80.123512 1075.624268,79.642296 1073.663696,82.143692 
M763.160706,82.598404 
	C761.460449,84.158562 759.760193,85.718719 758.126038,87.218208 
	C766.088562,95.171440 775.631714,97.477943 786.427002,96.040466 
	C795.473450,94.835861 801.646240,89.135910 802.239929,81.024437 
	C802.827881,72.990120 799.470520,69.358139 788.971924,66.774933 
	C785.600586,65.945412 782.077698,65.560249 778.860229,64.346169 
	C777.139160,63.696747 775.920654,61.715492 774.475403,60.335304 
	C776.312073,59.226658 778.274658,57.024990 779.961243,57.219257 
	C784.572449,57.750404 789.067444,59.291039 794.923401,60.762249 
	C796.272644,59.185040 798.725159,56.318207 801.325378,53.278694 
	C791.139038,47.175022 780.434998,43.963715 768.841309,49.968430 
	C763.074036,52.955482 760.747375,58.238163 761.187256,64.525551 
	C761.608948,70.553612 765.991638,73.365410 771.163696,74.899361 
	C775.590759,76.212364 780.272522,76.708733 784.632935,78.183372 
	C786.369934,78.770813 787.545898,81.017105 788.977295,82.508224 
	C787.211304,83.691833 785.564453,85.618515 783.657654,85.924416 
	C777.045044,86.985275 771.356873,84.569786 766.822998,79.803322 
	C765.561279,80.749954 764.635742,81.444344 763.160706,82.598404 
M954.055847,55.734673 
	C945.473511,43.610229 925.650696,45.083298 917.858032,53.540821 
	C908.556580,63.635849 908.900146,83.028770 918.902466,91.049614 
	C929.843811,99.823486 948.312256,98.119354 955.952393,83.941055 
	C952.790161,82.280403 949.630188,80.620926 946.130310,78.782974 
	C944.048950,83.862869 940.421326,86.382286 935.156555,85.814301 
	C930.748108,85.338707 927.251221,82.647163 926.662781,78.525749 
	C925.957886,73.589005 925.894409,68.176636 927.209961,63.429409 
	C928.990112,57.005852 938.060425,55.600937 942.743652,60.429749 
	C943.757080,61.474731 944.524292,62.758591 945.372070,63.888622 
	C948.190247,62.440147 950.942078,61.243565 953.416565,59.623245 
	C954.173340,59.127621 954.168396,57.468613 954.055847,55.734673 
M719.577087,259.035492 
	C712.722534,265.585144 711.140198,273.820618 712.153381,282.792664 
	C713.384583,293.695038 720.625122,300.998444 731.772705,302.832886 
	C741.428650,304.421844 752.970459,298.924042 756.442932,290.421143 
	C753.396179,288.843781 750.349365,287.266449 747.144531,285.607269 
	C746.564575,286.427551 746.157288,286.908203 745.854126,287.447479 
	C743.343323,291.914368 739.289795,292.678070 734.720337,291.997986 
	C730.348450,291.347260 727.905029,288.265137 727.224915,284.348053 
	C726.560852,280.524048 726.651611,276.485291 726.995178,272.592377 
	C727.381470,268.215485 730.112549,265.318054 734.401489,264.248260 
	C739.965454,262.860474 743.275574,266.354980 746.163208,270.432831 
	C749.746338,268.468170 753.034485,266.665253 756.338257,264.853760 
	C748.444763,252.177521 733.587036,249.733109 719.577087,259.035492 
M762.368774,164.593628 
	C762.477722,172.414413 762.353577,180.247406 762.762756,188.052444 
	C763.151917,195.477432 766.414246,198.859253 773.788574,199.726181 
	C777.440430,200.155487 781.184387,199.800766 784.811096,199.800766 
	C784.811096,195.236603 784.811096,191.938324 784.811096,188.426086 
	C780.640320,188.948288 776.569458,189.275375 776.500183,183.538986 
	C776.410461,176.115341 776.478271,168.689804 776.478271,160.745972 
	C779.412964,160.745972 781.973389,160.745972 784.414795,160.745972 
	C784.414795,157.626175 784.414795,155.039642 784.414795,152.080536 
	C781.669739,152.080536 779.237305,152.080536 776.473999,152.080536 
	C776.473999,147.483627 776.473999,143.260635 776.473999,139.101288 
	C771.593262,139.101288 767.056885,139.101288 762.246338,139.101288 
	C762.246338,143.579773 762.246338,147.680161 762.246338,152.107773 
	C760.043152,152.107773 758.114990,152.107773 755.950317,152.107773 
	C755.950317,155.182968 755.950317,157.915405 755.950317,160.317505 
	C757.779602,162.532654 762.408630,158.180969 762.368774,164.593628 
M1075.111938,137.446823 
	C1073.259277,142.197739 1071.406616,146.948654 1069.288574,152.379913 
	C1068.316284,152.379913 1066.223267,152.379913 1064.049561,152.379913 
	C1064.049561,155.310165 1064.049561,157.911804 1064.049561,160.734055 
	C1066.415771,160.886520 1068.633423,161.029434 1071.221680,161.196213 
	C1071.221680,173.776001 1071.221680,186.016708 1071.221680,198.102386 
	C1076.036255,198.102386 1080.441528,198.102386 1085.206543,198.102386 
	C1085.206543,185.548660 1085.206543,173.299164 1085.206543,160.683075 
	C1088.168335,160.683075 1090.754272,160.683075 1093.516357,160.683075 
	C1093.516357,157.727402 1093.516357,155.150726 1093.516357,152.048981 
	C1090.556641,152.048981 1087.831543,152.048981 1085.234985,152.048981 
	C1084.014648,143.999008 1090.346802,146.694260 1093.902832,145.605606 
	C1093.902832,142.970795 1094.196411,140.602310 1093.785522,138.363083 
	C1093.562256,137.146347 1092.077393,135.161728 1091.270630,135.213791 
	C1086.083130,135.548706 1080.925781,136.351288 1075.111938,137.446823 
M1207.250000,45.415306 
	C1208.096802,51.379826 1202.890137,47.801765 1200.879761,49.473602 
	C1200.879761,51.978745 1200.879761,54.546810 1200.879761,57.199848 
	C1203.075195,57.342331 1204.997803,57.467117 1207.245483,57.612988 
	C1207.245483,64.191757 1207.246216,70.491867 1207.245239,76.791977 
	C1207.242554,94.568237 1211.375244,98.178230 1229.110840,95.881035 
	C1229.250610,95.862930 1229.374390,95.722450 1229.706787,95.511314 
	C1229.706787,92.230797 1229.706787,88.824234 1229.706787,85.145943 
	C1226.114868,84.947472 1221.438232,86.406792 1221.258179,80.813034 
	C1221.009155,73.077446 1221.195679,65.327827 1221.195679,57.165596 
	C1224.282104,57.165596 1226.860107,57.165596 1229.381348,57.165596 
	C1229.381348,54.279224 1229.381348,51.835526 1229.381348,48.942268 
	C1226.600586,48.942268 1224.030884,48.942268 1220.942871,48.942268 
	C1220.942871,44.109737 1220.942871,39.719055 1220.942871,35.346657 
	C1216.157227,35.346657 1211.906738,35.346657 1207.249268,35.346657 
	C1207.249268,38.542194 1207.249268,41.501511 1207.250000,45.415306 
M1172.556152,48.986389 
	C1165.323853,49.276714 1170.969604,54.456478 1168.801514,57.082630 
	C1171.603516,57.292721 1173.688232,57.449032 1176.003052,57.622589 
	C1176.003052,64.066589 1176.002930,70.215202 1176.003052,76.363815 
	C1176.003418,94.668533 1179.094604,97.501808 1197.416260,95.965439 
	C1197.706299,95.941116 1197.976685,95.681793 1198.283203,95.517700 
	C1198.283203,92.099594 1198.283203,88.682663 1198.283203,85.259758 
	C1194.719971,84.763626 1190.015869,86.636833 1189.973877,80.632080 
	C1189.920288,72.990768 1189.960815,65.348793 1189.960815,57.226265 
	C1192.809448,57.226265 1195.363403,57.226265 1197.983276,57.226265 
	C1197.983276,54.297127 1197.983276,51.853394 1197.983276,49.161633 
	C1195.284302,49.029961 1192.709839,48.904362 1189.682617,48.756676 
	C1189.682617,44.068424 1189.682617,39.676853 1189.682617,35.366882 
	C1184.931274,35.366882 1180.661011,35.366882 1175.994385,35.366882 
	C1175.994385,39.072880 1176.188843,42.548649 1175.879028,45.978851 
	C1175.782837,47.043484 1174.318115,47.984486 1172.556152,48.986389 
M822.603333,138.783401 
	C821.753174,139.760666 820.265686,140.679626 820.169922,141.725906 
	C819.857544,145.140701 820.052856,148.601944 820.052856,152.327209 
	C817.524597,152.327209 815.584839,152.327209 813.575684,152.327209 
	C813.575684,155.346237 813.575684,158.061066 813.575684,161.057526 
	C815.869080,161.057526 817.805054,161.057526 820.055664,161.057526 
	C820.055664,165.308609 820.052124,169.279388 820.056702,173.250183 
	C820.061340,177.249893 819.989807,181.251907 820.099670,185.248840 
	C820.390991,195.846451 824.673218,200.010544 835.204529,199.875198 
	C837.646301,199.843811 840.082642,199.391739 842.416382,199.144394 
	C842.416382,195.315002 842.416382,191.923386 842.416382,188.391861 
	C838.692200,188.706848 834.436279,189.815857 834.188599,184.598953 
	C833.819702,176.828491 834.093018,169.027542 834.093018,160.873062 
	C836.900452,160.873062 839.321716,160.873062 841.872925,160.873062 
	C841.872925,157.787811 841.872925,155.081741 841.872925,151.994080 
	C839.143860,151.994080 836.734375,151.994080 833.939697,151.994080 
	C833.939697,147.364639 833.939697,143.115280 833.939697,138.756790 
	C830.222595,138.756790 826.904602,138.756790 822.603333,138.783401 
M899.159668,152.849426 
	C899.159668,155.453339 899.159668,158.057266 899.159668,160.753876 
	C901.561462,160.909637 903.622559,161.043304 905.955078,161.194565 
	C905.955078,170.358490 905.908691,179.160187 905.972900,187.961090 
	C906.010193,193.076050 908.082825,197.512329 913.138123,198.732025 
	C917.905396,199.882217 923.040833,199.506668 928.012939,199.802231 
	C928.012939,195.246933 928.012939,191.973480 928.012939,188.528992 
	C924.295227,188.559708 919.952515,189.689621 919.872437,184.016739 
	C919.765137,176.421814 919.845947,168.824234 919.845947,160.753052 
	C922.771545,160.753052 925.332825,160.753052 927.684753,160.753052 
	C927.684753,157.666946 927.684753,155.066650 927.684753,151.935654 
	C924.840881,151.935654 922.294128,151.935654 919.499329,151.935654 
	C919.499329,147.270767 919.499329,143.159882 919.499329,139.015625 
	C914.827087,139.015625 910.424377,139.015625 905.663452,139.015625 
	C905.663452,143.526123 905.663452,147.765839 905.663452,152.210770 
	C903.474365,152.210770 901.651428,152.210770 899.159668,152.849426 
M645.071350,164.500015 
	C645.071350,154.774017 645.071350,145.048004 645.071350,135.404755 
	C639.400635,135.404755 634.476318,135.404755 629.398743,135.404755 
	C629.398743,156.497696 629.398743,177.336151 629.398743,198.222931 
	C634.741821,198.222931 639.802490,198.222931 645.071350,198.222931 
	C645.071350,187.102432 645.071350,176.301224 645.071350,164.500015 
M929.290466,257.501038 
	C929.290466,272.239563 929.290466,286.978088 929.290466,301.625122 
	C934.290649,301.625122 938.706787,301.625122 943.029846,301.625122 
	C943.029846,280.561584 943.029846,259.794769 943.029846,238.913910 
	C938.397400,238.913910 933.954773,238.913910 929.290466,238.913910 
	C929.290466,244.913544 929.290466,250.707748 929.290466,257.501038 
M806.415527,152.704498 
	C801.952454,152.023453 797.489380,151.342392 792.908691,150.643387 
	C792.908691,167.249023 792.908691,182.663803 792.908691,198.024475 
	C797.582336,198.024475 801.956909,198.024475 806.375488,198.024475 
	C806.375488,182.976593 806.375488,168.323868 806.415527,152.704498 
M804.991272,135.118225 
	C800.937500,135.118225 796.883789,135.118225 792.808105,135.118225 
	C792.808105,139.087204 792.808105,142.354202 792.808105,145.779343 
	C797.385864,145.779343 801.754883,145.779343 806.644226,145.779343 
	C806.370239,142.113541 806.116516,138.717728 804.991272,135.118225 
z"/>
<path fill="#000000" opacity="1.000000" stroke="none" 
	d="
M1.000000,32.468658 
	C17.947468,32.000000 34.894936,32.000000 51.977921,32.000000 
	C51.977921,122.033989 51.977921,211.685608 51.977921,301.758301 
	C35.133743,301.758301 18.521906,301.758301 1.455034,301.879150 
	C1.000000,212.312439 1.000000,122.624878 1.000000,32.468658 
z"/>
<path fill="#040404" opacity="1.000000" stroke="none" 
	d="
M1018.468628,316.000000 
	C1012.788513,312.521088 1008.337769,308.576904 1009.121033,301.231384 
	C1013.556885,301.231384 1018.019043,301.231384 1022.533203,301.231384 
	C1025.571411,307.812012 1028.764160,309.747253 1035.067139,307.909485 
	C1041.555054,306.017853 1039.508789,300.303833 1039.991821,296.237030 
	C1035.253296,297.130859 1030.495972,298.928253 1025.822510,298.732178 
	C1014.232178,298.245850 1007.250793,288.430176 1008.426514,274.835724 
	C1009.164185,266.305267 1011.479126,258.424042 1020.558655,254.830551 
	C1027.258545,252.178909 1033.522827,253.171204 1039.415649,257.342804 
	C1042.880981,251.777054 1048.192993,256.070374 1052.833008,253.923050 
	C1052.982056,256.169250 1053.155029,257.580048 1053.157104,258.991089 
	C1053.178955,273.318604 1053.174194,287.646118 1053.173950,301.973663 
	C1053.173828,308.448975 1050.452393,313.088593 1044.078491,315.654785 
	C1035.645752,316.000000 1027.291504,316.000000 1018.468628,316.000000 
M1036.175049,265.283630 
	C1028.939209,261.616699 1024.136841,263.731903 1022.824829,271.619202 
	C1022.266663,274.974609 1022.556641,278.556091 1022.985535,281.968903 
	C1023.504028,286.094666 1026.210449,288.627014 1030.384399,288.679016 
	C1034.638916,288.732056 1038.108887,287.248810 1039.245239,282.394073 
	C1040.632202,276.468567 1040.454590,270.893768 1036.175049,265.283630 
z"/>
<path fill="#060606" opacity="1.000000" stroke="none" 
	d="
M1063.468018,316.000000 
	C1063.224731,313.057373 1063.449463,310.114746 1063.667358,307.260773 
	C1064.107422,307.027222 1064.390137,306.754150 1064.687500,306.737122 
	C1075.782837,306.101929 1075.838989,306.087677 1072.583130,295.694580 
	C1068.343994,282.163086 1064.005249,268.662781 1059.586914,254.763626 
	C1064.701172,254.763626 1069.257568,254.763626 1074.140503,254.763626 
	C1076.583984,266.203857 1079.003784,277.533478 1081.423584,288.863098 
	C1081.666260,288.939819 1081.909058,289.016541 1082.151855,289.093231 
	C1083.407593,283.481781 1084.691284,277.876404 1085.910767,272.257080 
	C1086.966675,267.392059 1087.770996,262.462189 1089.086548,257.670807 
	C1089.431396,256.415009 1091.183350,254.805084 1092.426880,254.674957 
	C1096.193970,254.280716 1100.028687,254.532394 1104.575317,254.532394 
	C1102.504272,261.044922 1100.638428,267.140381 1098.627197,273.187439 
	C1094.809937,284.664581 1091.090820,296.180725 1086.918945,307.529175 
	C1085.847534,310.443787 1083.239502,312.793427 1081.168701,315.701294 
	C1075.312012,316.000000 1069.623901,316.000000 1063.468018,316.000000 
z"/>
<path fill="#020202" opacity="1.000000" stroke="none" 
	d="
M237.214218,68.000107 
	C237.214218,146.094162 237.214218,223.688217 237.214218,301.525635 
	C218.141785,301.525635 199.414749,301.525635 180.472809,301.525635 
	C180.472809,211.738220 180.472809,122.187767 180.472809,32.315731 
	C199.215240,32.315731 217.935623,32.315731 237.214218,32.315731 
	C237.214218,44.005238 237.214218,55.752670 237.214218,68.000107 
z"/>
<path fill="#010101" opacity="1.000000" stroke="none" 
	d="
M144.865799,143.000061 
	C144.865799,167.631454 144.865799,191.762833 144.865799,216.198059 
	C125.883209,216.198059 107.152687,216.198059 88.178497,216.198059 
	C88.178497,155.065323 88.178497,93.821716 88.178497,32.288364 
	C106.859589,32.288364 125.595955,32.288364 144.865799,32.288364 
	C144.865799,69.004066 144.865799,105.752052 144.865799,143.000061 
z"/>
<path fill="#030303" opacity="1.000000" stroke="none" 
	d="
M422.207550,219.000122 
	C422.207550,246.784103 422.207550,274.068085 422.207550,301.563202 
	C403.161102,301.563202 384.557373,301.563202 365.615356,301.563202 
	C365.615356,242.629150 365.615356,183.731979 365.615356,124.445877 
	C384.163666,124.445877 402.874115,124.445877 422.207550,124.445877 
	C422.207550,155.683121 422.207550,187.091614 422.207550,219.000122 
z"/>
<path fill="#020202" opacity="1.000000" stroke="none" 
	d="
M507.802826,73.994118 
	C507.802826,79.124016 507.802826,83.755104 507.802826,88.661324 
	C460.286774,88.661324 413.091248,88.661324 365.600189,88.661324 
	C365.600189,69.955368 365.600189,51.237427 365.600189,32.257874 
	C412.826477,32.257874 460.031464,32.257874 507.802826,32.257874 
	C507.802826,45.988415 507.802826,59.741856 507.802826,73.994118 
z"/>
<path fill="#020202" opacity="1.000000" stroke="none" 
	d="
M272.932495,80.950706 
	C272.932892,64.499619 272.932892,48.540646 272.932892,32.290249 
	C291.845673,32.290249 310.570099,32.290249 329.599915,32.290249 
	C329.599915,50.915199 329.599915,69.624680 329.599915,88.639816 
	C310.923340,88.639816 292.211639,88.639816 272.932129,88.639816 
	C272.932129,86.301590 272.932129,83.872208 272.932495,80.950706 
z"/>
<path fill="#030303" opacity="1.000000" stroke="none" 
	d="
M643.164917,51.075932 
	C643.164917,65.560684 643.164917,80.045441 643.164917,94.859039 
	C638.600830,94.859039 634.039001,94.859039 629.222534,94.859039 
	C629.222534,74.180611 629.222534,53.419880 629.222534,32.335182 
	C636.703613,32.335182 644.274902,32.335182 652.171570,32.335182 
	C655.795471,47.447468 659.448669,62.682076 663.430054,79.285126 
	C667.512085,62.756241 671.242981,47.648991 675.034363,32.296997 
	C682.516479,32.296997 689.933716,32.296997 697.699951,32.296997 
	C697.699951,53.016636 697.699951,73.882271 697.699951,94.966370 
	C692.942505,94.966370 688.198730,94.966370 683.069946,94.966370 
	C683.069946,79.728859 683.069946,64.536705 683.069946,49.344543 
	C682.760925,49.297165 682.451904,49.249790 682.142883,49.202412 
	C678.273560,64.334656 674.404297,79.466904 670.463928,94.877167 
	C665.835327,94.877167 661.238708,94.877167 656.270142,94.877167 
	C652.540894,80.614601 648.778931,66.226807 644.989136,51.099770 
	C644.581726,49.405136 644.202148,48.449753 643.822632,47.494370 
	C643.603394,47.535572 643.384155,47.576775 643.164917,47.617977 
	C643.164917,48.770630 643.164917,49.923279 643.164917,51.075932 
z"/>
<path fill="#070707" opacity="1.000000" stroke="none" 
	d="
M805.571655,301.868164 
	C801.161804,301.961823 797.210266,301.961823 792.853943,301.961823 
	C792.853943,293.432709 792.873962,285.325317 792.839722,277.218201 
	C792.831299,275.229797 792.895935,273.189056 792.487854,271.265564 
	C791.721008,267.651215 790.156189,264.609924 785.677185,264.765015 
	C781.098694,264.923584 779.145569,267.853790 778.977844,271.877533 
	C778.659180,279.518921 778.715088,287.176086 778.628296,294.826843 
	C778.604004,296.968597 778.624573,299.110840 778.624573,301.597839 
	C774.005554,301.597839 769.642090,301.597839 765.005859,301.597839 
	C765.005859,280.857941 765.005859,260.133606 765.005859,239.050323 
	C769.367676,239.050323 773.739563,239.050323 778.446228,239.050323 
	C778.446228,245.231918 778.446228,251.470825 778.446228,258.524445 
	C784.063293,254.485336 789.552856,252.553436 795.954834,253.852585 
	C801.098816,254.896454 805.294922,257.845184 805.568237,262.638611 
	C806.310242,275.650360 805.952026,288.724854 805.571655,301.868164 
z"/>
<path fill="#040404" opacity="1.000000" stroke="none" 
	d="
M977.878174,78.009232 
	C977.878174,83.819283 977.878174,89.131927 977.878174,94.818802 
	C973.392822,94.818802 968.994812,94.818802 964.271118,94.818802 
	C964.271118,74.235962 964.271118,53.365814 964.271118,32.253452 
	C968.648621,32.253452 973.043091,32.253452 977.775635,32.253452 
	C977.775635,38.817348 977.775635,45.216496 977.775635,50.880379 
	C982.174377,49.541733 986.381531,47.465633 990.730469,47.106186 
	C999.364319,46.392593 1005.159973,51.084614 1005.593079,59.598637 
	C1006.190186,71.338379 1005.742737,83.131256 1005.742737,95.044128 
	C1001.216187,95.044128 996.922363,95.044128 991.992371,95.044128 
	C991.992371,87.022591 992.033020,78.934868 991.968079,70.847992 
	C991.948242,68.371292 992.372681,65.482765 991.270264,63.529980 
	C989.993958,61.269211 987.499573,58.887764 985.095764,58.273346 
	C981.984070,57.477985 979.193115,59.746048 978.761108,63.136757 
	C978.155579,67.888786 978.143860,72.716484 977.878174,78.009232 
z"/>
<path fill="#050505" opacity="1.000000" stroke="none" 
	d="
M699.390442,168.291107 
	C699.389893,178.410934 699.389893,188.061691 699.389893,198.053436 
	C694.721252,198.053436 690.170471,198.053436 685.312134,198.053436 
	C685.312134,188.465576 685.330750,179.007294 685.305237,169.549133 
	C685.289795,163.820221 683.421936,161.355225 679.068542,161.171646 
	C674.327087,160.971725 671.438477,163.962570 671.383301,169.495407 
	C671.289001,178.959579 671.357239,188.425385 671.357239,198.155594 
	C666.707581,198.155594 662.317322,198.155594 657.759338,198.155594 
	C657.759338,182.496140 657.759338,167.081573 657.759338,151.430084 
	C662.214478,151.430084 666.479492,151.430084 670.956604,151.430084 
	C671.133850,152.452759 671.317200,153.510498 671.531006,154.744293 
	C672.059082,154.522339 672.542847,154.429474 672.885742,154.158417 
	C678.590576,149.648880 685.009216,148.981552 691.670288,151.151077 
	C696.380249,152.685120 698.778320,156.386688 699.113159,161.336823 
	C699.259094,163.494965 699.301514,165.660095 699.390442,168.291107 
z"/>
<path fill="#080808" opacity="1.000000" stroke="none" 
	d="
M901.727051,87.802002 
	C901.991577,90.404510 902.250366,92.531876 902.540283,94.915070 
	C898.697327,94.915070 894.593201,94.915070 890.204773,94.915070 
	C889.806152,93.747253 889.356689,92.430504 888.833252,90.896927 
	C883.777954,95.455444 878.043274,96.955338 871.621399,96.194305 
	C865.375000,95.454086 860.807678,91.760422 859.359924,86.180206 
	C857.796082,80.152641 859.786072,73.302452 865.372131,70.605499 
	C870.920349,67.926773 877.207092,66.758995 883.200439,65.034714 
	C884.600891,64.631821 886.124573,64.657394 887.845398,64.456161 
	C888.188049,61.018490 889.214844,57.652260 884.923645,55.986858 
	C880.875122,54.415680 877.095886,55.882851 874.932556,59.595200 
	C874.398682,60.511417 873.176086,61.494499 872.188171,61.588825 
	C869.380859,61.856861 866.531067,61.696644 863.698303,61.671303 
	C862.904358,61.664200 862.111511,61.540455 861.326111,61.470921 
	C861.722351,53.450275 865.844666,48.500870 874.129456,47.390182 
	C879.173401,46.713982 884.501892,46.801701 889.525024,47.627110 
	C898.568542,49.113140 901.577942,53.075729 901.709290,62.330101 
	C901.827637,70.660728 901.725891,78.994484 901.727051,87.802002 
M878.697754,75.008377 
	C877.940186,75.309372 877.187073,75.622444 876.424194,75.909264 
	C873.411804,77.041672 871.618164,79.160751 872.411499,82.392227 
	C873.235962,85.750206 876.112976,86.229012 879.133667,86.157417 
	C885.880188,85.997498 889.090027,80.941162 887.565063,72.522820 
	C884.863831,73.345985 882.185669,74.162094 878.697754,75.008377 
z"/>
<path fill="#060606" opacity="1.000000" stroke="none" 
	d="
M1025.023560,151.795013 
	C1035.775391,148.678436 1045.718994,149.246002 1053.649414,157.222412 
	C1061.690552,165.310196 1061.862671,175.507034 1058.273071,185.541779 
	C1054.618042,195.759384 1045.868286,199.334625 1035.800293,199.836685 
	C1023.204895,200.464767 1013.476990,193.150803 1010.810242,181.550262 
	C1007.764343,168.300186 1012.907715,157.283737 1025.023560,151.795013 
M1025.316406,182.799377 
	C1028.637695,188.117844 1032.947876,190.148636 1038.135254,188.839172 
	C1042.447632,187.750580 1045.562744,183.550308 1046.054199,177.923248 
	C1046.241211,175.781647 1046.283569,173.599716 1046.108154,171.459427 
	C1045.618530,165.487045 1041.950195,161.459396 1036.776001,160.996857 
	C1030.038696,160.394577 1026.158081,162.674774 1024.854858,169.362030 
	C1024.062622,173.426605 1024.906494,177.809998 1025.316406,182.799377 
z"/>
<path fill="#070707" opacity="1.000000" stroke="none" 
	d="
M969.372864,196.554123 
	C956.113708,202.508743 943.114990,199.892502 936.443604,190.207108 
	C930.422791,181.466171 931.656860,164.746826 938.918579,156.675980 
	C945.197876,149.696976 958.124329,148.012985 967.455872,152.958267 
	C974.799622,156.850143 979.326599,166.639145 978.681335,177.680496 
	C968.145935,177.680496 957.573364,177.680496 947.028076,177.680496 
	C946.692322,183.856888 948.657166,187.334442 953.135559,188.926498 
	C958.729370,190.915070 962.331665,189.218842 968.224915,181.524124 
	C969.844116,182.274734 971.597534,183.055511 973.321716,183.896042 
	C974.951538,184.690613 976.550720,185.547989 979.387207,187.007431 
	C975.892334,190.366867 972.787598,193.351349 969.372864,196.554123 
M952.613525,160.925018 
	C948.748230,162.178543 946.909058,164.982803 946.320801,168.872330 
	C952.603577,168.872330 958.689880,168.872330 964.807190,168.872330 
	C963.724548,162.175583 959.882507,159.484558 952.613525,160.925018 
z"/>
<path fill="#060606" opacity="1.000000" stroke="none" 
	d="
M919.995117,282.549011 
	C916.889771,304.736603 890.865967,307.265930 878.641174,297.876038 
	C871.326416,292.257660 868.136353,280.893280 870.969482,270.676758 
	C873.642517,261.037811 880.528687,255.136292 890.255432,253.853012 
	C908.822876,251.403351 922.051270,261.997070 919.995117,282.549011 
M885.215149,270.149384 
	C885.160156,275.197388 884.438354,280.354462 885.241211,285.262115 
	C886.015869,289.997223 889.951721,292.177521 894.856140,292.219666 
	C899.909729,292.263092 903.736572,290.238068 904.993713,285.232880 
	C905.863159,281.771606 906.190674,278.047638 906.011292,274.478699 
	C905.732178,268.924377 902.476135,265.144012 897.490784,264.240112 
	C892.492798,263.333923 888.252686,264.680542 885.215149,270.149384 
z"/>
<path fill="#070707" opacity="1.000000" stroke="none" 
	d="
M1137.912842,96.102097 
	C1127.935303,94.334976 1121.401855,89.047768 1119.567505,79.315460 
	C1117.643555,69.107971 1118.510498,59.077095 1127.031372,51.891960 
	C1134.520264,45.577023 1143.453369,45.330196 1152.320679,49.015717 
	C1160.677612,52.489132 1165.469482,62.451797 1164.790771,74.362671 
	C1154.393433,74.362671 1143.967651,74.362671 1133.290649,74.362671 
	C1132.246338,79.511940 1134.133545,82.994728 1138.346802,85.236488 
	C1143.332886,87.889427 1147.157349,86.238808 1154.821045,78.352684 
	C1158.094849,79.989861 1161.437866,81.661613 1164.790405,83.338150 
	C1159.175293,93.453896 1150.785522,97.448158 1137.912842,96.102097 
M1138.594727,65.992493 
	C1142.678833,65.992493 1146.762939,65.992493 1150.883667,65.992493 
	C1150.047729,59.618168 1146.744751,56.645721 1141.230225,57.016598 
	C1136.441284,57.338673 1133.169312,60.941475 1133.184692,65.992104 
	C1134.664551,65.992104 1136.146240,65.992104 1138.594727,65.992493 
z"/>
<path fill="#050505" opacity="1.000000" stroke="none" 
	d="
M1002.344299,282.290771 
	C1000.586975,294.149078 993.742859,300.809814 982.570618,302.590881 
	C972.497437,304.196716 963.063782,302.283630 956.912842,293.276489 
	C950.670959,284.136230 950.688354,274.190979 955.965210,264.614044 
	C961.080688,255.329803 969.883850,253.269241 979.753540,253.578934 
	C994.764771,254.049973 1004.409241,266.131256 1002.344299,282.290771 
M987.163574,286.400848 
	C987.394775,281.379852 988.325195,276.263306 987.656067,271.365295 
	C987.015747,266.678345 982.998474,264.346069 978.279358,264.032776 
	C973.794922,263.735016 969.647705,265.222137 968.210083,269.616272 
	C966.924622,273.545441 966.504578,277.962708 966.700745,282.117493 
	C966.923218,286.827942 969.366028,290.814148 974.394287,291.911865 
	C979.417969,293.008545 983.955872,291.954620 987.163574,286.400848 
z"/>
<path fill="#060606" opacity="1.000000" stroke="none" 
	d="
M712.421021,71.376205 
	C719.251221,69.071739 725.824341,67.074150 732.334534,64.889114 
	C733.922668,64.356071 736.671326,62.734623 736.561890,62.418430 
	C735.777771,60.153744 734.907959,57.138268 733.096313,56.164898 
	C728.713928,53.810276 724.863770,56.037144 722.306396,61.547913 
	C718.245605,61.547913 714.129883,61.547913 710.024048,61.547913 
	C709.638000,54.086483 713.884949,48.542599 722.274658,47.503429 
	C728.258057,46.762310 734.574036,47.215370 740.543396,48.264111 
	C746.741699,49.353073 749.853882,54.054939 749.951050,60.568745 
	C750.075256,68.891884 749.933105,77.218742 750.017517,85.542862 
	C750.047607,88.511261 750.403992,91.476349 750.636963,94.809616 
	C746.897278,94.809616 742.870789,94.809616 738.375305,94.809616 
	C738.135559,93.789803 737.825195,92.469536 737.552612,91.310020 
	C726.609497,97.263329 715.804626,101.258659 708.305603,87.381889 
	C705.444153,82.086868 707.102234,75.968590 712.421021,71.376205 
M736.727905,76.040665 
	C736.727905,74.946701 736.727905,73.852730 736.727905,72.157875 
	C732.007812,73.674492 727.641113,74.639793 723.738586,76.552399 
	C722.230835,77.291351 720.795471,80.372887 721.123413,82.032158 
	C721.437805,83.623070 723.924072,85.602318 725.726868,85.932869 
	C731.893250,87.063522 735.133484,84.113213 736.727905,76.040665 
z"/>
<path fill="#060606" opacity="1.000000" stroke="none" 
	d="
M878.160645,172.964569 
	C878.160645,165.653534 878.160645,158.836227 878.160645,151.607361 
	C882.681091,151.607361 887.068420,151.607361 891.782043,151.607361 
	C891.782043,166.863861 891.782043,182.252975 891.782043,197.675064 
	C884.314209,199.602982 878.746948,198.742371 877.581543,195.377197 
	C872.192139,199.214188 866.402039,200.974182 859.782959,199.145432 
	C853.735229,197.474548 850.644165,194.777054 850.432800,188.497086 
	C850.020447,176.244141 850.311829,163.967499 850.311829,151.443756 
	C854.761475,151.443756 859.024963,151.443756 864.021912,151.443756 
	C864.021912,157.587540 864.022461,163.831238 864.021729,170.074936 
	C864.021240,173.902985 864.086670,177.732559 863.999573,181.558670 
	C863.898132,186.011932 866.004639,188.398026 870.420105,188.663712 
	C874.600281,188.915192 877.708130,186.223160 878.029785,181.938782 
	C878.241150,179.124542 878.128296,176.285965 878.160645,172.964569 
z"/>
<path fill="#040404" opacity="1.000000" stroke="none" 
	d="
M860.969238,292.950989 
	C860.969238,296.082886 860.969238,298.721710 860.969238,301.648132 
	C856.307922,301.648132 851.916870,301.648132 847.027588,301.648132 
	C847.027588,291.742859 847.117981,281.963074 846.992798,272.186066 
	C846.920898,266.572083 844.963562,264.670746 839.997375,264.751556 
	C835.194946,264.829712 833.055664,267.041595 833.005066,272.429138 
	C832.914490,282.069092 832.979553,291.710510 832.979553,301.646362 
	C828.323669,301.646362 823.931458,301.646362 819.264160,301.646362 
	C819.264160,286.019440 819.264160,270.466125 819.264160,254.933289 
	C831.334778,253.642990 832.320068,253.843781 832.986755,256.454926 
	C838.294250,255.494324 843.526978,253.626907 848.681885,253.821381 
	C857.270752,254.145432 860.747742,258.357086 860.926147,266.963867 
	C861.102173,275.458527 860.967529,283.959625 860.969238,292.950989 
z"/>
<path fill="#050505" opacity="1.000000" stroke="none" 
	d="
M680.105347,281.009552 
	C677.473572,281.010040 675.327087,281.010040 673.050659,281.010040 
	C673.144470,286.651703 675.055847,290.760254 680.444214,292.430725 
	C687.544250,294.631836 691.068848,289.658112 694.875427,284.563904 
	C698.264221,286.347626 701.567017,288.086060 704.848694,289.813416 
	C699.745850,301.875916 684.630493,305.310516 673.802856,301.686737 
	C662.171875,297.794128 656.963196,286.129333 660.057678,271.251038 
	C662.510376,259.458466 671.994324,252.346359 683.908020,253.365402 
	C697.965942,254.567856 704.355652,262.614929 705.466492,281.009064 
	C697.160461,281.009064 688.875488,281.009064 680.105347,281.009552 
M674.195435,267.951416 
	C673.730774,269.386688 673.266174,270.821930 672.803955,272.249695 
	C679.512939,272.249695 685.514160,272.249695 691.515381,272.249695 
	C691.841248,271.746704 692.167053,271.243683 692.492920,270.740692 
	C690.055054,268.464417 687.960205,265.492859 685.096313,264.080200 
	C681.129639,262.123505 677.469360,264.083252 674.195435,267.951416 
z"/>
<path fill="#060606" opacity="1.000000" stroke="none" 
	d="
M1032.105469,79.430779 
	C1032.572876,84.892349 1035.921631,85.455032 1039.994385,85.096573 
	C1044.052734,84.739395 1046.039307,82.361794 1046.089355,78.560364 
	C1046.220337,68.589478 1046.133545,58.615738 1046.133545,48.318459 
	C1050.822388,48.318459 1055.215698,48.318459 1059.871582,48.318459 
	C1059.871582,63.671173 1059.871582,79.085815 1059.871582,94.536240 
	C1052.096924,96.336327 1046.815674,95.489128 1046.102295,93.525879 
	C1040.641602,94.466866 1035.418701,96.197571 1030.243286,96.065880 
	C1022.291199,95.863548 1018.482727,91.632195 1018.295227,83.663612 
	C1018.021240,72.023415 1018.224731,60.371971 1018.224731,48.358589 
	C1022.776428,48.358589 1027.162231,48.358589 1032.102783,48.358589 
	C1032.102783,58.472206 1032.102783,68.727684 1032.105469,79.430779 
z"/>
<path fill="#040404" opacity="1.000000" stroke="none" 
	d="
M629.196594,291.955078 
	C629.196594,278.166321 629.196594,264.869690 629.196594,251.137604 
	C623.899902,251.137604 618.659363,251.137604 613.174622,251.137604 
	C613.174622,246.828217 613.174622,242.952927 613.174622,238.895020 
	C629.307068,238.895020 645.223511,238.895020 661.498291,238.895020 
	C661.498291,242.755798 661.498291,246.609955 661.498291,250.810104 
	C656.245117,250.810104 650.982788,250.810104 645.373413,250.810104 
	C645.373413,267.853699 645.373413,284.570953 645.373413,301.612366 
	C639.975220,301.612366 634.910828,301.612366 629.196594,301.612366 
	C629.196594,298.628204 629.196594,295.537689 629.196594,291.955078 
z"/>
<path fill="#070707" opacity="1.000000" stroke="none" 
	d="
M851.078735,75.271347 
	C853.363220,84.198105 849.465454,91.683411 841.207947,94.735237 
	C829.871948,98.924812 816.935242,96.111679 807.671265,87.149574 
	C810.344360,84.754341 812.997192,82.377335 815.898621,79.777542 
	C820.520508,83.703087 825.602295,87.066269 831.934509,85.989044 
	C834.280579,85.589958 836.323547,83.408958 838.504761,82.040649 
	C836.711670,80.650230 835.115112,78.680916 833.084106,77.991570 
	C829.030151,76.615601 824.641174,76.236572 820.569031,74.901695 
	C815.753479,73.323097 811.417419,70.997604 810.852051,64.961586 
	C810.234314,58.365952 812.440857,53.190140 818.232422,49.928696 
	C826.395569,45.331749 834.833618,46.258881 843.191101,49.407440 
	C845.945374,50.445061 848.525085,51.946125 851.659668,53.465565 
	C848.540710,56.382320 845.791626,58.953171 843.738770,60.872974 
	C838.684814,59.540886 833.955811,57.951180 829.097595,57.217426 
	C827.586426,56.989204 825.725098,59.079453 824.024109,60.108330 
	C825.375549,61.543983 826.478699,63.705437 828.128296,64.269821 
	C832.007629,65.597054 836.178406,66.042694 840.174622,67.066010 
	C844.765320,68.241570 848.943665,70.140762 851.078735,75.271347 
z"/>
<path fill="#060606" opacity="1.000000" stroke="none" 
	d="
M718.145020,152.923477 
	C729.953430,147.444382 740.370483,150.669464 750.489380,156.524658 
	C747.819458,159.466415 745.230103,162.319412 743.576843,164.141037 
	C738.175232,162.636826 733.706360,160.955521 729.094788,160.335175 
	C727.384521,160.105103 725.339355,162.364563 723.446960,163.488678 
	C725.032898,164.960709 726.382507,167.134003 728.252197,167.763931 
	C732.616943,169.234573 737.278198,169.796509 741.732605,171.037704 
	C746.655518,172.409470 750.543091,175.115082 751.142883,180.720276 
	C751.802612,186.885071 750.221436,192.175003 744.773315,195.841431 
	C735.043701,202.389206 719.693970,200.897781 709.152771,192.318573 
	C708.508789,191.794449 707.926880,191.194016 707.084717,190.415131 
	C709.937439,187.939453 712.757019,185.492538 715.602356,183.023239 
	C720.808777,187.658218 726.534119,190.816681 733.627930,189.008759 
	C735.312500,188.579437 736.575928,186.497772 738.033081,185.176132 
	C736.715576,183.899490 735.608398,182.013168 734.037476,181.471359 
	C730.619324,180.292511 726.958801,179.825806 723.408264,179.019821 
	C717.404602,177.656967 711.568726,175.692017 710.354553,168.682281 
	C709.195312,161.989243 711.998108,156.691849 718.145020,152.923477 
z"/>
<path fill="#060606" opacity="1.000000" stroke="none" 
	d="
M1238.327881,91.782944 
	C1236.328491,90.253410 1234.638062,88.927284 1232.627319,87.350021 
	C1235.479736,84.788353 1238.156494,82.384422 1241.122437,79.720764 
	C1245.754028,83.773605 1250.901367,86.921547 1257.209595,86.008995 
	C1259.493164,85.678650 1261.542969,83.732117 1263.699463,82.523064 
	C1261.906616,80.980354 1260.349365,78.788483 1258.270386,78.033623 
	C1254.264893,76.579239 1249.899170,76.151337 1245.802856,74.903526 
	C1240.868530,73.400406 1236.612061,70.903145 1235.984863,65.028168 
	C1235.308105,58.689739 1237.425415,53.532986 1242.969238,50.181023 
	C1249.821533,46.037949 1257.269165,46.061584 1264.655762,48.148544 
	C1268.700562,49.291355 1272.473511,51.396431 1276.996094,53.336624 
	C1273.589600,56.475285 1270.824463,59.022976 1268.880371,60.814178 
	C1263.741211,59.488464 1258.990479,57.913696 1254.114258,57.216599 
	C1252.639038,57.005707 1250.816406,59.225639 1249.152832,60.332165 
	C1250.437866,61.614872 1251.505127,63.489998 1253.052734,64.058876 
	C1256.439331,65.303726 1260.082642,65.835587 1263.597900,66.748077 
	C1273.879028,69.416885 1277.289307,72.903946 1277.065918,80.422226 
	C1276.835938,88.164474 1271.523682,94.179420 1262.640747,95.773163 
	C1254.313232,97.267258 1246.083496,96.749191 1238.327881,91.782944 
z"/>
<path fill="#060606" opacity="1.000000" stroke="none" 
	d="
M1073.919189,81.899231 
	C1075.624268,79.642296 1076.892944,80.123512 1078.603638,81.579056 
	C1082.831299,85.176201 1087.891968,86.915871 1093.356567,85.946930 
	C1095.382446,85.587715 1097.093018,83.450684 1098.947388,82.124420 
	C1097.343384,80.744720 1095.949829,78.722046 1094.093018,78.114151 
	C1089.724365,76.683746 1085.051514,76.196182 1080.656372,74.829269 
	C1075.734741,73.298523 1071.590088,70.541801 1071.048218,64.764313 
	C1070.476318,58.666702 1072.604614,53.613029 1077.874146,50.292828 
	C1086.969849,44.561825 1102.234497,46.258850 1111.265991,53.877728 
	C1108.609985,56.543415 1105.957275,59.205853 1104.185303,60.984398 
	C1099.088257,59.544033 1094.664307,57.829578 1090.094482,57.234749 
	C1088.307251,57.002110 1086.192871,59.283421 1084.227417,60.419754 
	C1085.860596,61.852901 1087.273438,63.941990 1089.173584,64.579865 
	C1092.898804,65.830429 1096.921875,66.161301 1100.774048,67.073395 
	C1107.784912,68.733337 1111.650269,72.723770 1112.087769,78.501404 
	C1112.614258,85.453346 1109.221313,91.285751 1103.000854,94.121353 
	C1091.817749,99.219223 1076.976685,96.280830 1068.053711,87.002464 
	C1069.930786,85.376747 1071.797241,83.760223 1073.919189,81.899231 
z"/>
<path fill="#050505" opacity="1.000000" stroke="none" 
	d="
M763.435425,82.368561 
	C764.635742,81.444344 765.561279,80.749954 766.822998,79.803322 
	C771.356873,84.569786 777.045044,86.985275 783.657654,85.924416 
	C785.564453,85.618515 787.211304,83.691833 788.977295,82.508224 
	C787.545898,81.017105 786.369934,78.770813 784.632935,78.183372 
	C780.272522,76.708733 775.590759,76.212364 771.163696,74.899361 
	C765.991638,73.365410 761.608948,70.553612 761.187256,64.525551 
	C760.747375,58.238163 763.074036,52.955482 768.841309,49.968430 
	C780.434998,43.963715 791.139038,47.175022 801.325378,53.278694 
	C798.725159,56.318207 796.272644,59.185040 794.923401,60.762249 
	C789.067444,59.291039 784.572449,57.750404 779.961243,57.219257 
	C778.274658,57.024990 776.312073,59.226658 774.475403,60.335300 
	C775.920654,61.715492 777.139160,63.696747 778.860229,64.346169 
	C782.077698,65.560249 785.600586,65.945412 788.971924,66.774933 
	C799.470520,69.358139 802.827881,72.990120 802.239929,81.024437 
	C801.646240,89.135910 795.473450,94.835861 786.427002,96.040466 
	C775.631714,97.477943 766.088562,95.171440 758.126038,87.218208 
	C759.760193,85.718719 761.460449,84.158562 763.435425,82.368561 
z"/>
<path fill="#060606" opacity="1.000000" stroke="none" 
	d="
M954.284058,56.038532 
	C954.168396,57.468613 954.173340,59.127621 953.416565,59.623245 
	C950.942078,61.243565 948.190247,62.440147 945.372070,63.888622 
	C944.524292,62.758591 943.757080,61.474731 942.743652,60.429749 
	C938.060425,55.600937 928.990112,57.005852 927.209961,63.429409 
	C925.894409,68.176636 925.957886,73.589005 926.662781,78.525749 
	C927.251221,82.647163 930.748108,85.338707 935.156555,85.814301 
	C940.421326,86.382286 944.048950,83.862869 946.130310,78.782974 
	C949.630188,80.620926 952.790161,82.280403 955.952393,83.941055 
	C948.312256,98.119354 929.843811,99.823486 918.902466,91.049614 
	C908.900146,83.028770 908.556580,63.635849 917.858032,53.540821 
	C925.650696,45.083298 945.473511,43.610229 954.284058,56.038532 
z"/>
<path fill="#060606" opacity="1.000000" stroke="none" 
	d="
M719.872009,258.820618 
	C733.587036,249.733109 748.444763,252.177521 756.338257,264.853760 
	C753.034485,266.665253 749.746338,268.468170 746.163208,270.432831 
	C743.275574,266.354980 739.965454,262.860474 734.401489,264.248260 
	C730.112549,265.318054 727.381470,268.215485 726.995178,272.592377 
	C726.651611,276.485291 726.560852,280.524048 727.224915,284.348053 
	C727.905029,288.265137 730.348450,291.347260 734.720337,291.997986 
	C739.289795,292.678070 743.343323,291.914368 745.854126,287.447479 
	C746.157288,286.908203 746.564575,286.427551 747.144531,285.607269 
	C750.349365,287.266449 753.396179,288.843781 756.445129,290.421753 
	C752.970459,298.924042 741.428650,304.421844 731.772705,302.832886 
	C720.625122,300.998444 713.384583,293.695038 712.153381,282.792664 
	C711.140198,273.820618 712.722534,265.585144 719.872009,258.820618 
z"/>
<path fill="#080808" opacity="1.000000" stroke="none" 
	d="
M762.370117,164.110947 
	C762.408630,158.180969 757.779602,162.532654 755.950317,160.317505 
	C755.950317,157.915405 755.950317,155.182968 755.950317,152.107773 
	C758.114990,152.107773 760.043152,152.107773 762.246338,152.107773 
	C762.246338,147.680161 762.246338,143.579773 762.246338,139.101288 
	C767.056885,139.101288 771.593262,139.101288 776.473999,139.101288 
	C776.473999,143.260635 776.473999,147.483627 776.473999,152.080536 
	C779.237305,152.080536 781.669739,152.080536 784.414795,152.080536 
	C784.414795,155.039642 784.414795,157.626175 784.414795,160.745972 
	C781.973389,160.745972 779.412964,160.745972 776.478271,160.745972 
	C776.478271,168.689804 776.410461,176.115341 776.500183,183.538986 
	C776.569458,189.275375 780.640320,188.948288 784.811096,188.426086 
	C784.811096,191.938324 784.811096,195.236603 784.811096,199.800766 
	C781.184387,199.800766 777.440430,200.155487 773.788574,199.726181 
	C766.414246,198.859253 763.151917,195.477432 762.762756,188.052444 
	C762.353577,180.247406 762.477722,172.414413 762.370117,164.110947 
z"/>
<path fill="#040404" opacity="1.000000" stroke="none" 
	d="
M1075.435303,137.223541 
	C1080.925781,136.351288 1086.083130,135.548706 1091.270630,135.213791 
	C1092.077393,135.161728 1093.562256,137.146347 1093.785522,138.363083 
	C1094.196411,140.602310 1093.902832,142.970795 1093.902832,145.605606 
	C1090.346802,146.694260 1084.014648,143.999008 1085.234985,152.048981 
	C1087.831543,152.048981 1090.556641,152.048981 1093.516357,152.048981 
	C1093.516357,155.150726 1093.516357,157.727402 1093.516357,160.683075 
	C1090.754272,160.683075 1088.168335,160.683075 1085.206543,160.683075 
	C1085.206543,173.299164 1085.206543,185.548660 1085.206543,198.102386 
	C1080.441528,198.102386 1076.036255,198.102386 1071.221680,198.102386 
	C1071.221680,186.016708 1071.221680,173.776001 1071.221680,161.196213 
	C1068.633423,161.029434 1066.415771,160.886520 1064.049561,160.734055 
	C1064.049561,157.911804 1064.049561,155.310165 1064.049561,152.379913 
	C1066.223267,152.379913 1068.316284,152.379913 1069.288574,152.379913 
	C1071.406616,146.948654 1073.259277,142.197739 1075.435303,137.223541 
z"/>
<path fill="#070707" opacity="1.000000" stroke="none" 
	d="
M1207.249634,44.938065 
	C1207.249268,41.501511 1207.249268,38.542194 1207.249268,35.346657 
	C1211.906738,35.346657 1216.157227,35.346657 1220.942871,35.346657 
	C1220.942871,39.719055 1220.942871,44.109737 1220.942871,48.942268 
	C1224.030884,48.942268 1226.600586,48.942268 1229.381348,48.942268 
	C1229.381348,51.835526 1229.381348,54.279224 1229.381348,57.165596 
	C1226.860107,57.165596 1224.282104,57.165596 1221.195679,57.165596 
	C1221.195679,65.327827 1221.009155,73.077446 1221.258179,80.813034 
	C1221.438232,86.406792 1226.114868,84.947472 1229.706787,85.145943 
	C1229.706787,88.824234 1229.706787,92.230797 1229.706787,95.511314 
	C1229.374390,95.722450 1229.250610,95.862930 1229.110840,95.881035 
	C1211.375244,98.178230 1207.242554,94.568237 1207.245239,76.791977 
	C1207.246216,70.491867 1207.245483,64.191757 1207.245483,57.612988 
	C1204.997803,57.467117 1203.075195,57.342331 1200.879761,57.199848 
	C1200.879761,54.546810 1200.879761,51.978745 1200.879761,49.473602 
	C1202.890137,47.801765 1208.096802,51.379826 1207.249634,44.938065 
z"/>
<path fill="#060606" opacity="1.000000" stroke="none" 
	d="
M1173.018066,48.984238 
	C1174.318115,47.984486 1175.782837,47.043484 1175.879028,45.978851 
	C1176.188843,42.548649 1175.994385,39.072880 1175.994385,35.366882 
	C1180.661011,35.366882 1184.931274,35.366882 1189.682617,35.366882 
	C1189.682617,39.676853 1189.682617,44.068424 1189.682617,48.756676 
	C1192.709839,48.904362 1195.284302,49.029961 1197.983276,49.161633 
	C1197.983276,51.853394 1197.983276,54.297127 1197.983276,57.226265 
	C1195.363403,57.226265 1192.809448,57.226265 1189.960815,57.226265 
	C1189.960815,65.348793 1189.920288,72.990768 1189.973877,80.632080 
	C1190.015869,86.636833 1194.719971,84.763626 1198.283203,85.259758 
	C1198.283203,88.682663 1198.283203,92.099594 1198.283203,95.517700 
	C1197.976685,95.681793 1197.706299,95.941116 1197.416260,95.965439 
	C1179.094604,97.501808 1176.003418,94.668533 1176.003052,76.363815 
	C1176.002930,70.215202 1176.003052,64.066589 1176.003052,57.622589 
	C1173.688232,57.449032 1171.603516,57.292721 1168.801514,57.082630 
	C1170.969604,54.456478 1165.323853,49.276714 1173.018066,48.984238 
z"/>
<path fill="#060606" opacity="1.000000" stroke="none" 
	d="
M823.094971,138.770096 
	C826.904602,138.756790 830.222595,138.756790 833.939697,138.756790 
	C833.939697,143.115280 833.939697,147.364639 833.939697,151.994080 
	C836.734375,151.994080 839.143860,151.994080 841.872925,151.994080 
	C841.872925,155.081741 841.872925,157.787811 841.872925,160.873062 
	C839.321716,160.873062 836.900452,160.873062 834.093018,160.873062 
	C834.093018,169.027542 833.819702,176.828491 834.188599,184.598953 
	C834.436279,189.815857 838.692200,188.706848 842.416382,188.391861 
	C842.416382,191.923386 842.416382,195.315002 842.416382,199.144394 
	C840.082642,199.391739 837.646301,199.843811 835.204529,199.875198 
	C824.673218,200.010544 820.390991,195.846451 820.099670,185.248840 
	C819.989807,181.251907 820.061340,177.249893 820.056702,173.250183 
	C820.052124,169.279388 820.055664,165.308609 820.055664,161.057526 
	C817.805054,161.057526 815.869080,161.057526 813.575684,161.057526 
	C813.575684,158.061066 813.575684,155.346237 813.575684,152.327209 
	C815.584839,152.327209 817.524597,152.327209 820.052856,152.327209 
	C820.052856,148.601944 819.857544,145.140701 820.169922,141.725906 
	C820.265686,140.679626 821.753174,139.760666 823.094971,138.770096 
z"/>
<path fill="#070707" opacity="1.000000" stroke="none" 
	d="
M899.494141,152.530090 
	C901.651428,152.210770 903.474365,152.210770 905.663452,152.210770 
	C905.663452,147.765839 905.663452,143.526123 905.663452,139.015625 
	C910.424377,139.015625 914.827087,139.015625 919.499329,139.015625 
	C919.499329,143.159882 919.499329,147.270767 919.499329,151.935654 
	C922.294128,151.935654 924.840881,151.935654 927.684753,151.935654 
	C927.684753,155.066650 927.684753,157.666946 927.684753,160.753052 
	C925.332825,160.753052 922.771545,160.753052 919.845947,160.753052 
	C919.845947,168.824234 919.765137,176.421814 919.872437,184.016739 
	C919.952515,189.689621 924.295227,188.559708 928.012939,188.528992 
	C928.012939,191.973480 928.012939,195.246933 928.012939,199.802231 
	C923.040833,199.506668 917.905396,199.882217 913.138123,198.732025 
	C908.082825,197.512329 906.010193,193.076050 905.972900,187.961090 
	C905.908691,179.160187 905.955078,170.358490 905.955078,161.194565 
	C903.622559,161.043304 901.561462,160.909637 899.159668,160.753876 
	C899.159668,158.057266 899.159668,155.453339 899.494141,152.530090 
z"/>
<path fill="#060606" opacity="1.000000" stroke="none" 
	d="
M645.071350,165.000031 
	C645.071350,176.301224 645.071350,187.102432 645.071350,198.222931 
	C639.802490,198.222931 634.741821,198.222931 629.398743,198.222931 
	C629.398743,177.336151 629.398743,156.497696 629.398743,135.404755 
	C634.476318,135.404755 639.400635,135.404755 645.071350,135.404755 
	C645.071350,145.048004 645.071350,154.774017 645.071350,165.000031 
z"/>
<path fill="#080808" opacity="1.000000" stroke="none" 
	d="
M929.290466,257.001495 
	C929.290466,250.707748 929.290466,244.913544 929.290466,238.913910 
	C933.954773,238.913910 938.397400,238.913910 943.029846,238.913910 
	C943.029846,259.794769 943.029846,280.561584 943.029846,301.625122 
	C938.706787,301.625122 934.290649,301.625122 929.290466,301.625122 
	C929.290466,286.978088 929.290466,272.239563 929.290466,257.001495 
z"/>
<path fill="#732022" opacity="1.000000" stroke="none" 
	d="
M273.064178,300.006439 
	C272.994812,298.181335 272.865234,296.356232 272.864838,294.531128 
	C272.852844,239.922699 272.853577,185.314270 272.852325,130.705841 
	C272.852295,128.712067 272.852356,126.718300 272.852356,124.362549 
	C291.716827,124.362549 310.439423,124.362549 329.525238,124.362549 
	C329.641693,125.270035 329.903656,126.360870 329.904114,127.451828 
	C329.928619,184.890411 329.931549,242.329010 329.926483,299.767609 
	C329.926453,300.252472 329.787170,300.737366 329.265442,301.087402 
	C328.531555,300.600494 328.245087,300.248413 327.977814,299.438232 
	C328.007965,243.200104 327.980469,187.419968 328.104462,131.640167 
	C328.114166,127.273979 326.717926,125.832161 322.347656,125.897118 
	C307.864685,126.112358 293.375488,126.070503 278.891052,125.912071 
	C275.391693,125.873787 273.885193,126.560120 273.895508,130.532135 
	C274.041901,186.977493 274.030090,243.423233 273.807648,299.897797 
	C273.393921,299.953247 273.229065,299.979828 273.064178,300.006439 
z"/>
<path fill="#030303" opacity="1.000000" stroke="none" 
	d="
M806.395508,153.187820 
	C806.375488,168.323868 806.375488,182.976593 806.375488,198.024475 
	C801.956909,198.024475 797.582336,198.024475 792.908691,198.024475 
	C792.908691,182.663803 792.908691,167.249023 792.908691,150.643387 
	C797.489380,151.342392 801.952454,152.023453 806.395508,153.187820 
z"/>
<path fill="#080808" opacity="1.000000" stroke="none" 
	d="
M805.427002,135.220062 
	C806.116516,138.717728 806.370239,142.113541 806.644226,145.779343 
	C801.754883,145.779343 797.385864,145.779343 792.808105,145.779343 
	C792.808105,142.354202 792.808105,139.087204 792.808105,135.118225 
	C796.883789,135.118225 800.937500,135.118225 805.427002,135.220062 
z"/>
<path fill="#560000" opacity="1.000000" stroke="none" 
	d="
M327.958649,299.896332 
	C328.245087,300.248413 328.531555,300.600494 328.879547,301.189026 
	C310.672394,301.500397 292.403717,301.579987 274.134949,301.616455 
	C273.771790,301.617157 273.407654,301.113586 273.054077,300.425873 
	C273.229065,299.979828 273.393921,299.953247 274.268738,299.938782 
	C292.638672,299.932678 310.298676,299.914490 327.958649,299.896332 
z"/>
<path fill="#AAAAAA" opacity="1.000000" stroke="none" 
	d="
M643.447876,51.039280 
	C643.164917,49.923279 643.164917,48.770630 643.164917,47.617977 
	C643.384155,47.576775 643.603394,47.535572 643.822632,47.494370 
	C644.202148,48.449753 644.581726,49.405136 644.914001,50.712700 
	C644.488159,51.044128 644.109497,51.023376 643.447876,51.039280 
z"/>
<path fill="#F7F7F7" opacity="1.000000" stroke="none" 
	d="
M1036.453491,265.539978 
	C1040.454590,270.893768 1040.632202,276.468567 1039.245239,282.394073 
	C1038.108887,287.248810 1034.638916,288.732056 1030.384399,288.679016 
	C1026.210449,288.627014 1023.504028,286.094666 1022.985535,281.968903 
	C1022.556641,278.556091 1022.266663,274.974609 1022.824829,271.619202 
	C1024.136841,263.731903 1028.939209,261.616699 1036.453491,265.539978 
z"/>
<path fill="#F7F7F7" opacity="1.000000" stroke="none" 
	d="
M879.102661,74.993286 
	C882.185669,74.162094 884.863831,73.345985 887.565063,72.522820 
	C889.090027,80.941162 885.880188,85.997498 879.133667,86.157417 
	C876.112976,86.229012 873.235962,85.750206 872.411499,82.392227 
	C871.618164,79.160751 873.411804,77.041672 876.424194,75.909264 
	C877.187073,75.622444 877.940186,75.309372 879.102661,74.993286 
z"/>
<path fill="#FBFBFB" opacity="1.000000" stroke="none" 
	d="
M1025.165894,182.424774 
	C1024.906494,177.809998 1024.062622,173.426605 1024.854858,169.362030 
	C1026.158081,162.674774 1030.038696,160.394577 1036.776001,160.996857 
	C1041.950195,161.459396 1045.618530,165.487045 1046.108154,171.459427 
	C1046.283569,173.599716 1046.241211,175.781647 1046.054199,177.923248 
	C1045.562744,183.550308 1042.447632,187.750580 1038.135254,188.839172 
	C1032.947876,190.148636 1028.637695,188.117844 1025.165894,182.424774 
z"/>
<path fill="#F7F7F7" opacity="1.000000" stroke="none" 
	d="
M952.976868,160.788544 
	C959.882507,159.484558 963.724548,162.175583 964.807190,168.872330 
	C958.689880,168.872330 952.603577,168.872330 946.320801,168.872330 
	C946.909058,164.982803 948.748230,162.178543 952.976868,160.788544 
z"/>
<path fill="#FBFBFB" opacity="1.000000" stroke="none" 
	d="
M885.475464,269.849487 
	C888.252686,264.680542 892.492798,263.333923 897.490784,264.240112 
	C902.476135,265.144012 905.732178,268.924377 906.011292,274.478699 
	C906.190674,278.047638 905.863159,281.771606 904.993713,285.232880 
	C903.736572,290.238068 899.909729,292.263092 894.856140,292.219666 
	C889.951721,292.177521 886.015869,289.997223 885.241211,285.262115 
	C884.438354,280.354462 885.160156,275.197388 885.475464,269.849487 
z"/>
<path fill="#FBFBFB" opacity="1.000000" stroke="none" 
	d="
M1138.111328,65.992294 
	C1136.146240,65.992104 1134.664551,65.992104 1133.184692,65.992104 
	C1133.169312,60.941475 1136.441284,57.338673 1141.230225,57.016598 
	C1146.744751,56.645721 1150.047729,59.618168 1150.883667,65.992493 
	C1146.762939,65.992493 1142.678833,65.992493 1138.111328,65.992294 
z"/>
<path fill="#F7F7F7" opacity="1.000000" stroke="none" 
	d="
M987.018311,286.763550 
	C983.955872,291.954620 979.417969,293.008545 974.394287,291.911865 
	C969.366028,290.814148 966.923218,286.827942 966.700745,282.117493 
	C966.504578,277.962708 966.924622,273.545441 968.210083,269.616272 
	C969.647705,265.222137 973.794922,263.735016 978.279358,264.032776 
	C982.998474,264.346069 987.015747,266.678345 987.656067,271.365295 
	C988.325195,276.263306 987.394775,281.379852 987.018311,286.763550 
z"/>
<path fill="#F7F7F7" opacity="1.000000" stroke="none" 
	d="
M736.666016,76.451660 
	C735.133484,84.113213 731.893250,87.063522 725.726868,85.932869 
	C723.924072,85.602318 721.437805,83.623070 721.123413,82.032158 
	C720.795471,80.372887 722.230835,77.291351 723.738586,76.552399 
	C727.641113,74.639793 732.007812,73.674492 736.727905,72.157875 
	C736.727905,73.852730 736.727905,74.946701 736.666016,76.451660 
z"/>
<path fill="#E9E9E9" opacity="1.000000" stroke="none" 
	d="
M674.411804,267.632507 
	C677.469360,264.083252 681.129639,262.123505 685.096313,264.080200 
	C687.960205,265.492859 690.055054,268.464417 692.492920,270.740692 
	C692.167053,271.243683 691.841248,271.746704 691.515381,272.249695 
	C685.514160,272.249695 679.512939,272.249695 672.803955,272.249695 
	C673.266174,270.821930 673.730774,269.386688 674.411804,267.632507 
z"/>
<path fill="#8C0605" opacity="1.000000" stroke="none" 
	d="
M327.977814,299.438232 
	C310.298676,299.914490 292.638672,299.932678 274.517578,299.909851 
	C274.030090,243.423233 274.041901,186.977493 273.895508,130.532135 
	C273.885193,126.560120 275.391693,125.873787 278.891052,125.912071 
	C293.375488,126.070503 307.864685,126.112358 322.347656,125.897118 
	C326.717926,125.832161 328.114166,127.273979 328.104462,131.640167 
	C327.980469,187.419968 328.007965,243.200104 327.977814,299.438232 
z"/>
</svg>