<svg xmlns="http://www.w3.org/2000/svg" xmlns:xlink="http://www.w3.org/1999/xlink" version="1.1" id="Layer_1" x="0px" y="0px" style="enable-background:new 0 0 504 216;" xml:space="preserve" viewBox="35.2 60.58 434.6 97.02">
<style type="text/css">
	.st0{fill:url(#SVGID_1_);}
	.st1{fill:none;}
</style>
<g>
	<g>
		<path d="M138.3,123.4l3.6-6.1c3,2.1,7.3,3.3,11.4,3.3c3.4,0,5.5-1.1,5.5-3c0-2-1.8-2.9-6.2-3.2c-8.3-0.7-13.2-4.3-13.2-10.1    c0-6,5.6-10.1,14.2-10.1c5,0,9.5,1.4,12.9,3.6l-3.5,6c-2.7-1.7-5.7-2.5-9-2.5c-4,0-6.1,1-6.1,3c0,1.8,1.6,2.7,5.6,3.1    c9.3,0.9,13.8,4.1,13.8,10.3c0,6.2-5.5,10.3-14.4,10.3C147.4,127.9,142.4,126.3,138.3,123.4z"/>
		<path d="M172.2,86c0-3,2.2-5.1,5.3-5.1s5.3,2.1,5.3,5.1c0,2.9-2.3,4.9-5.3,4.9S172.2,88.9,172.2,86z M173.1,95h8.6v32.1h-8.6V95z"/>
		<path d="M221.7,109.2v17.9h-8.6v-17.4c0-4.9-2.7-7.8-7-7.8c-4.7,0-7.8,3.4-7.8,8.4v16.8h-8.6V95h7.5l0.6,3.7    c2.5-2.8,6.3-4.4,10.5-4.4C216.4,94.3,221.7,100.1,221.7,109.2z"/>
		<path d="M254.5,122.4c4.7,2,7.3,5.5,7.3,10.2c0,8.1-6.8,13.4-17.4,13.4c-10.9,0-17.7-6-17.1-14.8h8.4c-0.1,4.5,3.2,7.3,8.7,7.3    c5.1,0,8.6-2.5,8.6-6.1c0-3.7-3.1-5.9-8.5-5.9c-10.7,0-17.6-6.3-17.6-16.1c0-9.4,7.2-16.2,17.4-16.2c3,0,5.8,0.6,8.1,1.9l4-4.9    l6.2,4.7l-4.4,5.1c2.5,2.9,3.5,5.7,3.5,9.4C261.9,115.7,259.3,119.9,254.5,122.4z M253.4,110.4c0-5.2-3.5-8.6-8.8-8.6    s-8.8,3.4-8.8,8.6c0,5.1,3.6,8.6,8.8,8.6C249.9,119,253.4,115.5,253.4,110.4z"/>
		<path d="M299.8,95v32.1h-7.5l-0.6-3.7c-2.5,2.8-6.2,4.4-10.5,4.4c-8,0-13.3-5.7-13.3-14.8V95h8.6v17.4c0,4.9,2.7,7.8,6.8,7.8    c4.6,0,7.7-3.4,7.7-8.4V95H299.8z"/>
		<path d="M307.7,81.6h8.6v45.5h-8.6V81.6z"/>
		<path d="M357.2,95v32.1h-7.5l-0.6-3.9c-2.7,3-6.6,4.6-11.1,4.6c-9.2,0-15.6-6.9-15.6-16.8s6.4-16.8,15.6-16.8    c4.6,0,8.5,1.6,11.1,4.6l0.6-3.8C349.7,95,357.2,95,357.2,95z M348.7,111c0-5.4-3.6-9.2-8.8-9.2c-5.1,0-8.8,3.8-8.8,9.2    c0,5.4,3.6,9.2,8.8,9.2C345,120.3,348.7,116.4,348.7,111z"/>
		<path d="M390.6,97.3l-3.8,6.7c-1.8-1.2-3.4-1.7-5.2-1.7c-4.7,0-7.8,3.3-7.8,9.2v15.7h-8.6V95h7.5l0.7,4c2.5-3.3,5.5-4.7,9-4.7    C385.4,94.3,388.5,95.3,390.6,97.3z"/>
		<path d="M393.6,86c0-3,2.2-5.1,5.3-5.1c3.1,0,5.3,2.1,5.3,5.1c0,2.9-2.3,4.9-5.3,4.9C395.8,91,393.6,88.9,393.6,86z M394.5,95h8.6    v32.1h-8.6V95z"/>
		<path d="M432.4,125.9c-2.7,1.2-5,1.7-7.9,1.7c-6.6,0-10.9-3.5-10.9-11.9V102h-5.8v-7h5.8v-8.2l8.6-0.9V95h8.6v7.1h-8.6v13.7    c0,2.9,1.5,4.4,4.1,4.4c1.2,0,2.7-0.4,3.8-0.9L432.4,125.9z"/>
		<path d="M469.8,95l-20.1,46.5h-9.3l6.4-14.8L434.2,95h9.3l4.7,12.5l3.4,9.8l3.7-9.8l5.1-12.5H469.8z"/>
	</g>
	
		<linearGradient id="SVGID_1_" gradientUnits="userSpaceOnUse" x1="112.6067" y1="-198.7933" x2="39.0492" y2="-272.3508" gradientTransform="matrix(1 0 0 -1 0 -140)">
		<stop offset="0" style="stop-color:#200080"/>
		<stop offset="0.5" style="stop-color:#6633FF"/>
		<stop offset="1" style="stop-color:#0CE6E6"/>
	</linearGradient>
	<path class="st0" d="M73.5,157.2c-5.6-2-12.3-3.7-21.9-12.8c-7.8-6.8-16.5-23.2-16.4-40.4c0.2-33.6,0-34.6,0-34.6   c6.2-3,15.7-6.9,25.6-8c-16.6,9.7-22,36.6,3.7,50.6C96.1,129.2,83.4,153.3,73.5,157.2z M112.1,103.9V69.3   c-10-4.2-16.9-7.2-29.1-8.6c-16.7-2-27.6,21.6-3.3,35.3c16.3,9.2,27.3,23.7,23.1,39.4C112.2,122.3,112.1,103.9,112.1,103.9z"/>
</g>
<g>
	<path d="M270.4,149.6v-12h1.7v12c0,3.8,2.5,6.4,6.1,6.4c3.7,0,6.2-2.6,6.2-6.4v-12h1.7v12c0,4.8-3.1,8-7.8,8   C273.6,157.5,270.4,154.3,270.4,149.6z"/>
	<path d="M307,137.6v19.6h-1.7l-12.4-16.9v16.9h-1.7v-19.6h1.7l12.4,16.9v-16.9H307z"/>
	<path d="M312.5,137.6h1.7v19.6h-1.7V137.6z"/>
	<path d="M335.7,137.6l-8.1,19.6h-1.9l-8.1-19.6h1.8l7.3,17.7l7.2-17.7H335.7z"/>
	<path d="M353.2,155.6v1.6h-14v-19.6h13.6v1.6h-12v7.3h11.5v1.6h-11.5v7.5H353.2z"/>
	<path d="M364.5,149.9h-5.3v7.3h-1.7v-19.6h8.6c3.9,0,6.5,2.5,6.5,6.1c0,3.5-2.4,5.9-6,6.1l6.7,7.3h-2.2L364.5,149.9z M359.2,139.2   v9.1h7c3,0,4.8-1.8,4.8-4.5c0-2.7-1.8-4.5-4.8-4.5H359.2z"/>
	<path d="M375.8,154.1l1-1.2c1.4,1.8,4.2,3.1,7,3.1c3.7,0,6-1.5,6-3.9c0-2.2-1.5-3.2-6.3-4.1c-5.3-1-7.3-2.5-7.3-5.6s3-5.2,7.4-5.2   c2.8,0,5.3,1,7,2.7l-1,1.2c-1.5-1.5-3.7-2.4-6.1-2.4c-3.4,0-5.7,1.5-5.7,3.7c0,2.1,1.5,3.2,5.9,4c5.7,1,7.7,2.5,7.7,5.6   c0,3.4-3,5.5-7.7,5.5C380.7,157.5,377.6,156.2,375.8,154.1z"/>
	<path d="M395.6,137.6h1.7v19.6h-1.7V137.6z"/>
	<path d="M416.1,139.2h-7v18h-1.7v-18h-7v-1.6h15.7V139.2z"/>
	<path d="M426.6,149.4v7.8H425v-7.9l-7.7-11.7h2l6.6,10.1l6.6-10.1h2L426.6,149.4z"/>
</g>
<rect class="st1" width="504" height="216"/>
</svg>