<svg xmlns="http://www.w3.org/2000/svg" xmlns:xlink="http://www.w3.org/1999/xlink" version="1.1" id="Layer_1" x="0px" y="0px" style="enable-background:new 0 0 1000 1000;" xml:space="preserve" viewBox="182.53 141 634.94 718.01">
<style type="text/css">
	.st0{fill:#DBC1BB;}
	.st1{fill:#AE6B67;}
	.st2{fill:#ACA280;}
	.st3{fill:#D89D55;}
	.st4{fill:#83252E;}
	.st5{fill:#444344;}
	.st6{fill:#DBC4BD;}
	.st7{fill:#AA6F67;}
	.st8{fill:#D79C54;}
	.st9{fill:#85252E;}
	.st10{fill:#211F1F;}
</style>
<g>
	<path class="st0" d="M693.8,422.83c7.41-23.76,11.06-48.18,11.06-72.47c0-53.89-18.03-107.05-52.53-150.71   c22.14,34.12,35.28,72.56,38.86,111.93C700.42,347.34,701.56,385.33,693.8,422.83"/>
	<path class="st0" d="M649.39,474.74c0.6-1.59,1.17-3.18,1.76-4.78c-30.88,46.86-76.46,81.5-130.68,98.77   c-62.74,19.98-129.5,14.31-188.03-15.91c-14.67-7.59-28.34-16.68-41.1-26.94c16.98,16.44,36.18,30.36,57.5,41.38   c56.01,28.92,118.19,34,174.79,18.88C576.33,565.4,621.54,526.59,649.39,474.74"/>
	<path class="st1" d="M545.84,579.07c-3.77,1.9-7.62,3.7-11.49,5.42c-3.24,1.44-6.57,2.83-9.89,4.14   c-50.98,20.03-108.86,23.34-164.98,5.39c-15.73-5.03-30.72-11.73-45.01-19.69c19.47,13.35,40.69,23.89,63.57,31.19   c55.53,17.76,112.89,14.5,163.35-5.38c21.64-12.25,41.24-27.74,58.11-45.78c1.3-1.37,2.57-2.74,3.8-4.15   c1.42-1.56,2.81-3.15,4.16-4.76c13.32-15.65,24.67-33.01,33.72-51.71C617.17,530.61,584.03,559.74,545.84,579.07"/>
	<path class="st1" d="M692.13,327.89c-0.5-2.69-1.06-5.4-1.67-8.07c-0.6-2.61-1.21-5.22-1.88-7.79   c-11.68-45.18-36.29-86.76-72.01-119.18c33.81,36.97,55.09,82.81,62.04,131.16c4.11,13.54,7.1,27.5,8.84,41.85   c0.22,1.82,0.37,3.68,0.56,5.56c0.17,1.71,0.32,3.45,0.46,5.18c0.5,6.33,0.76,12.72,0.76,19.15c0,19.11-2.16,37.71-6.32,55.58   c-0.32,1.45-0.69,2.87-1.05,4.29l2.78-8.11c0.01-0.03,0.03-0.1,0.05-0.14c7.85-24.64,11.67-49.74,11.67-74.56   C696.35,357.66,694.91,342.61,692.13,327.89"/>
	<path class="st2" d="M658.7,455.2c-0.06,0.24-0.14,0.49-0.23,0.73c0.19-0.46,0.4-0.91,0.59-1.36   C658.94,454.77,658.83,454.98,658.7,455.2"/>
	<path class="st3" d="M654.31,465.04c-0.02,0.01-0.02,0.02-0.02,0.04c0.02-0.02,0.05-0.06,0.07-0.11   C654.34,464.99,654.34,465.01,654.31,465.04"/>
	<path class="st4" d="M686.43,386.85c-0.06-1.71-0.17-3.41-0.27-5.09c-0.09-1.79-0.2-3.58-0.34-5.34c-0.95-12-2.74-23.75-5.39-35.24   c-0.63-2.75-1.28-5.47-2-8.19c-0.77-2.84-1.57-5.67-2.43-8.48c-20.08-66.05-67.58-121.08-131.68-150.37   c75.95,43.65,123.74,124.62,123.74,213.66c0,21.36-2.73,42.09-7.87,61.87c-0.48,1.84-0.97,3.7-1.48,5.53   c0.08-0.21,0.22-0.43,0.32-0.63c-0.19,0.45-0.37,0.9-0.57,1.36c-0.42,1.51-0.86,3.01-1.34,4.51c-0.57,1.83-1.17,3.69-1.78,5.53   c-1.1,3.32-2.31,6.62-3.57,9.89c-8.62,22.48-20.44,43.39-34.91,62.18c-1.3,1.66-2.63,3.31-3.93,4.96c-1.2,1.48-2.42,2.93-3.66,4.38   c-14.7,17.29-31.77,32.53-50.63,45.23c-2.83,1.89-5.72,3.72-8.61,5.5c-2.48,1.53-4.98,3-7.54,4.43   c-35.75,20.23-77.02,31.77-120.98,31.77c-16.52,0-32.83-1.8-48.88-5c22.61,6.75,46.05,10.33,70.06,10.33   c95.18,0,177.84-54.82,217.97-134.56c1.98-3.93,3.83-7.92,5.61-11.98c1.84-4.21,3.6-8.5,5.2-12.85c0.5-1.32,0.97-2.68,1.46-4.03   c0.74-2.12,1.46-4.25,2.14-6.39c0.65-2.13,1.32-4.24,1.95-6.4c6.19-21.51,9.57-44.2,9.57-67.67   C686.61,392.76,686.56,389.8,686.43,386.85"/>
	<path class="st4" d="M525.11,151.21c3.54,8.46-0.46,18.18-8.93,21.72c-8.44,3.52-18.17-0.49-21.68-8.92   c-3.55-8.48,0.46-18.2,8.89-21.72C511.87,138.76,521.59,142.75,525.11,151.21"/>
	<path class="st5" d="M340.43,763.88c-2.14,0-4.02,1.87-4.02,3.99c0,2.28,1.88,4.01,4.02,4.01c2.27,0,4.01-1.72,4.01-4.01   C344.44,765.75,342.7,763.88,340.43,763.88"/>
	<path class="st5" d="M353,715.55h-8.02v35.91H227.29v-15.45c0-5.22-1.31-10.16-4.94-14.16c-3.88-4.29-9.49-6.3-15.11-6.3   c-5.59,0-11.22,2.01-15.1,6.3c-2.26,2.51-3.63,5.35-4.32,8.43h8.59c1.55-4.93,4.75-8.96,10.82-8.96c9.5,0,12.04,9.87,12.04,17.64   v12.5h-35.55v7.71H353"/>
	<path class="st5" d="M349.66,763.88c-2.14,0-4.01,1.87-4.01,3.99c0,2.28,1.87,4.01,4.01,4.01c2.27,0,4-1.72,4-4.01   C353.66,765.75,351.93,763.88,349.66,763.88"/>
	<rect x="364.36" y="700.33" class="st5" width="8.01" height="58.85"/>
	<path class="st5" d="M391.35,708.37c2.28,0,4.03-1.75,4.03-4.03c0-2.14-1.76-4-4.03-4c-2.26,0-4,1.85-4,4   C387.35,706.62,389.08,708.37,391.35,708.37"/>
	<path class="st5" d="M387.74,755.04c0,5.09-1.07,9.1-3.07,12.03c-1.99,2.94-4.8,4.42-8.14,4.42v9.49h0.53   c5.49,0,9.89-1.99,13.49-5.89c3.22-3.6,5.23-7.88,5.23-13.23v-46.31h-8.03"/>
	<path class="st5" d="M448.6,708.75c2.13,0,4.01-1.87,4.01-4c0-2.17-1.88-4.01-4.01-4.01c-2.28,0-4.01,1.72-4.01,4.01   C444.59,706.88,446.46,708.75,448.6,708.75"/>
	<path class="st5" d="M439.39,708.75c2.14,0,4-1.87,4-4c0-2.29-1.74-4.01-4-4.01c-2.14,0-4.02,1.84-4.02,4.01   C435.37,706.88,437.25,708.75,439.39,708.75"/>
	<path class="st5" d="M797.28,763.73c-2.14,0-4.02,1.87-4.02,4.02c0,2.25,1.76,3.99,4.02,3.99c2.27,0,4.01-1.74,4.01-3.99   C801.29,765.6,799.42,763.73,797.28,763.73"/>
	<path class="st5" d="M812.51,721.83c-3.86-4.13-9.22-6.29-14.97-6.29s-11.08,2.16-14.96,6.29c-3.63,3.87-4.96,8.96-4.96,14.17v7.79   h7.88v-5c0-7.48,2.81-17.49,12.04-17.49c9.23,0,12.05,10.01,12.05,17.49v12.67H689.61v-51.15h-8.02v58.85h135.88v-23.16   C817.47,730.79,816.12,725.7,812.51,721.83"/>
	<path class="st5" d="M651.92,751.46h-11.38v-13.28c0-7.75,2.54-16.87,12.03-16.87c8.83,0,11.35,7.12,11.35,14.62   C663.94,743.68,661.41,751.46,651.92,751.46 M535.88,735.94c0-4.82,3.27-14.62,11.36-14.62c7.91,0,12.02,9.12,12.02,14.62   l-12.8,15.53L535.88,735.94z M456.69,751.46h-11.36c-9.48,0-12.05-7.78-12.05-15.53c0-7.5,2.57-14.62,11.38-14.62   c9.49,0,12.03,9.12,12.03,16.87V751.46z M651.92,715.55c-5.63,0-10.56,2.16-14.3,6.3c-3.62,4-4.94,8.06-4.94,13.41v16.21h-77.14   l12.44-14.45c0-6.58-2.01-10.91-5.76-15.04c-3.87-4.27-8.56-6.28-14.31-6.28c-6,0-10.78,2.01-14.83,6.28   c-3.88,4.13-5.88,8.73-5.88,15.04l10.83,14.45h-73.44v-16.21c0-5.35-1.35-9.4-4.95-13.41c-3.75-4.14-8.68-6.3-14.3-6.3   c-12.7,0-19.69,9.28-19.69,21.46c0,6.14,1.56,11.68,4.69,15.28c5.26,6.05,12.32,6.89,17.94,6.89h200.73   c5.6,0,12.67-0.83,17.93-6.89c3.11-3.59,4.68-9.14,4.68-15.28C671.6,724.83,664.61,715.55,651.92,715.55"/>
	<polyline class="st5" points="182.53,858.05 182.53,856.16 206.35,809.49 182.91,809.49 182.91,802.69 216.73,802.69    216.73,804.58 192.85,851.25 217.57,851.25 217.57,858.05  "/>
	<path class="st5" d="M258.45,858.05l-3.82-11.68h-20.59l-4.08,11.68h-8.47l22.49-56.11h2l20.86,56.11 M244.62,816.45l-8.59,24.37   h16.44L244.62,816.45z"/>
	<polyline class="st5" points="284.64,833.26 284.64,858.05 277.08,858.05 277.08,833.26 259.25,802.69 267.03,802.69    280.82,826.88 294.61,802.69 302.4,802.69  "/>
	<polyline class="st5" points="316.11,809.49 316.11,824.87 334.41,824.87 334.41,831.29 316.11,831.29 316.11,851.25    341.21,851.25 341.21,858.05 308.56,858.05 308.56,802.7 341.62,802.7 341.62,809.49  "/>
	<path class="st5" d="M361.16,858.05h-11.15V802.7c7.1-0.26,11.65-0.38,13.64-0.38c7.74,0,13.85,2.35,18.37,7.05   c4.5,4.69,6.76,10.95,6.76,18.75C388.79,848.07,379.57,858.05,361.16,858.05 M357.57,809.49v41.38c1.69,0.25,3.78,0.38,6.28,0.38   c5.29,0,9.45-1.98,12.47-5.95c3.02-3.96,4.53-9.48,4.53-16.53c0-13.11-5.89-19.65-17.64-19.65   C362.49,809.12,360.62,809.24,357.57,809.49"/>
	<path class="st5" d="M420.79,802.7h7.56v37.9c0,3.37,1.07,6.16,3.21,8.33c2.15,2.18,4.98,3.27,8.51,3.27   c3.72,0,6.66-1.06,8.81-3.17c2.13-2.12,3.2-4.99,3.2-8.62V802.7h7.56v38.51c0,5.59-1.75,9.95-5.24,13.09   c-3.49,3.14-8.24,4.71-14.26,4.71c-6.19,0-10.97-1.54-14.32-4.61c-3.36-3.08-5.02-7.49-5.02-13.22"/>
	<polyline class="st5" points="506.76,858.81 478.15,818.33 478.15,858.05 470.98,858.05 470.98,802.69 473.99,802.69    501.84,840.97 501.84,802.69 509.03,802.69 509.03,858.81  "/>
	<rect x="521.68" y="802.69" class="st5" width="7.55" height="55.36"/>
	<polyline class="st5" points="561.17,858.81 557.36,858.81 536.72,802.69 545.12,802.69 559.36,843.46 573.08,802.69    581.21,802.69  "/>
	<polyline class="st5" points="594.92,809.49 594.92,824.87 613.21,824.87 613.21,831.29 594.92,831.29 594.92,851.25    620.02,851.25 620.02,858.05 587.36,858.05 587.36,802.7 620.43,802.7 620.43,809.49  "/>
	<path class="st5" d="M659.53,858.05l-14.77-23.77c-1.69,0-4.36-0.12-8.01-0.38v24.15h-7.56V802.7c0.28,0,2.24-0.1,5.88-0.29   c3.64-0.19,6.29-0.29,7.96-0.29c13.3,0,19.95,5.29,19.95,15.87c0,3.48-1.07,6.61-3.21,9.39c-2.15,2.79-4.69,4.52-7.64,5.2   l16.06,25.47 M636.75,809.49v17.99c1.81,0.25,3.57,0.37,5.29,0.37c4.53,0,7.83-0.74,9.9-2.19c2.07-1.46,3.1-4.06,3.1-7.82   c0-3.1-1.11-5.33-3.33-6.69c-2.21-1.36-5.72-2.04-10.5-2.04C640.45,809.12,638.96,809.24,636.75,809.49"/>
	<path class="st5" d="M671.37,855.52l2.77-6.96c1.4,1.04,3.16,1.9,5.26,2.59c2.1,0.69,3.98,1.04,5.65,1.04   c2.94,0,5.32-0.8,7.11-2.42c1.78-1.6,2.68-3.66,2.68-6.16c0-1.86-0.5-3.59-1.49-5.2c-1-1.59-3.5-3.34-7.5-5.23l-4.46-2.08   c-3.78-1.76-6.42-3.85-7.92-6.27c-1.5-2.41-2.25-5.34-2.25-8.73c0-4.13,1.46-7.55,4.38-10.28c2.92-2.72,6.68-4.07,11.27-4.07   c6.11,0,10.38,0.99,12.76,2.98l-2.23,6.58c-1.01-0.73-2.55-1.44-4.61-2.12c-2.07-0.68-3.98-1.02-5.75-1.02   c-2.56,0-4.59,0.73-6.06,2.19c-1.48,1.47-2.21,3.34-2.21,5.63c0,1.41,0.26,2.7,0.79,3.85c0.54,1.16,1.27,2.12,2.21,2.91   c0.95,0.78,2.88,1.88,5.8,3.29l4.54,2.15c3.78,1.79,6.44,3.92,7.96,6.41c1.52,2.48,2.28,5.64,2.28,9.47   c0,4.16-1.67,7.68-5.01,10.58c-3.33,2.9-7.8,4.35-13.4,4.35C679.04,859,674.84,857.84,671.37,855.52"/>
	<rect x="712.4" y="802.69" class="st5" width="7.56" height="55.36"/>
	<polyline class="st5" points="752.8,809.49 752.8,858.05 745.24,858.05 745.24,809.49 727.63,809.49 727.63,802.7 771.2,802.7    771.2,809.49  "/>
	<polyline class="st5" points="797.76,833.26 797.76,858.05 790.21,858.05 790.21,833.26 772.37,802.69 780.16,802.69    793.95,826.88 807.74,802.69 815.52,802.69  "/>
</g>
</svg>